<svg xmlns="http://www.w3.org/2000/svg" width="6.76" height="11.99" viewBox="0 0 6.76 11.99"><path d="M1.26.89H1.2l.39,0,0,0,.23.29q-.64-.07-.6.33a1.64,1.64,0,0,1,0,.22c0,.21,0,.41-.07.62L.93,3.72.63,6.28,0,11.51c-.06.58.83.65,1,.14L1.5,10c.19-.61-.77-.88-1-.26L0,11.38l1,.13,1-8.3c.08-.63.64-2.63-.55-2.64-.88,0-.86,1.49.09,1.28.63-.13.36-1.1-.27-1Z" fill="#231f20"/><path d="M2.22,1.38A.5.5,0,0,1,1.93.94l-.35.61a4.45,4.45,0,0,1,2.67-.48,1.2,1.2,0,0,1,1,1.62A6.61,6.61,0,0,1,3.56,4.62,9.74,9.74,0,0,1,1.44,6c-.58.28-.07,1.14.51.86a7.4,7.4,0,0,1,2.8-.8,1.48,1.48,0,0,1,.88.19c.28.22,0,.53-.2.74A7.44,7.44,0,0,1,1.21,9.56c-.63.14-.36,1.1.27,1A8.34,8.34,0,0,0,4.6,9.15,8.78,8.78,0,0,0,5.85,8a3.08,3.08,0,0,0,.89-1.36c.18-1-.81-1.51-1.64-1.59A7.38,7.38,0,0,0,1.44,6L2,6.88A10.36,10.36,0,0,0,4.67,5,4.53,4.53,0,0,0,6.33,2.24,2.31,2.31,0,0,0,4.77.19a4.81,4.81,0,0,0-3.46.4A.52.52,0,0,0,1,1.2a1.39,1.39,0,0,0,.76,1c.56.31,1.07-.55.5-.86Z" fill="#231f20"/></svg>