<svg xmlns="http://www.w3.org/2000/svg" width="9.42" height="12.01" viewBox="0 0 9.42 12.01"><path d="M1.45,3.35l-.24-.8a.51.51,0,0,0-1,.14,43.59,43.59,0,0,0,0,6.76c0,.64,1,.64,1,0a43.59,43.59,0,0,1,0-6.76l-1,.13.24.8a.5.5,0,0,0,1-.27Z" transform="translate(0 -2.07)" fill="#231f20"/><path d="M.85,7A3.2,3.2,0,0,1,4.76,7a.5.5,0,1,0,.5-.86,4.18,4.18,0,0,0-5.12.2A.52.52,0,0,0,.14,7,.52.52,0,0,0,.85,7Z" transform="translate(0 -2.07)" fill="#231f20"/><path d="M4.59,2.43a14.75,14.75,0,0,0,.64,8.29c.23.6,1.19.34,1-.26a13.83,13.83,0,0,1-.64-7.77c.13-.63-.83-.89-1-.26Z" transform="translate(0 -2.07)" fill="#231f20"/><path d="M8.1,9.43a18.61,18.61,0,0,0,.35,4.28.5.5,0,0,0,.61.35.52.52,0,0,0,.35-.62,17.37,17.37,0,0,1-.31-4,.5.5,0,0,0-1,0Z" transform="translate(0 -2.07)" fill="#231f20"/></svg>