<svg xmlns="http://www.w3.org/2000/svg" width="13.18" height="10.11" viewBox="0 0 13.18 10.11"><path d="M.25.83A33.91,33.91,0,0,0,.09,7.36c0,.63,1,.64,1,0A33.91,33.91,0,0,1,1.25.83a.51.51,0,0,0-.5-.5.51.51,0,0,0-.5.5Z" transform="translate(0)" fill="#231f20"/><path d="M1,4.53a10.4,10.4,0,0,1,3.73-.2.5.5,0,0,0,0-1,11.22,11.22,0,0,0-4,.23.5.5,0,0,0,.27,1Z" transform="translate(0)" fill="#231f20"/><path d="M4,.35A10.41,10.41,0,0,0,4.4,7.56a.5.5,0,0,0,.68.18.51.51,0,0,0,.18-.69A9.33,9.33,0,0,1,5,.61C5.19,0,4.23-.26,4,.35Z" transform="translate(0)" fill="#231f20"/><path d="M8,5.72c0-.06,0,0,0-.1a.34.34,0,0,1,.2-.19,1.94,1.94,0,0,1,.83,0c.34,0,1,.07.94.47a2,2,0,0,1-.39.82c-.19.31-.38.61-.59.9A16.72,16.72,0,0,1,7.64,9.25.5.5,0,0,0,8,10.1a9.82,9.82,0,0,0,4.95-1.16c.57-.31.06-1.17-.51-.87A8.78,8.78,0,0,1,8,9.1l.36.86a18.45,18.45,0,0,0,1.83-2.39c.49-.74,1.18-1.77.46-2.59a2.72,2.72,0,0,0-2.21-.6A1.53,1.53,0,0,0,7.19,5a1.07,1.07,0,0,0,0,1.21c.36.53,1.22,0,.86-.5Z" transform="translate(0)" fill="#231f20"/></svg>