<svg xmlns="http://www.w3.org/2000/svg" width="16.55" height="2.4" viewBox="0 0 16.55 2.4"><path d="M3.32,1.9h8.89a.5.5,0,0,0,0-1H3.32a.5.5,0,0,0,0,1Z" transform="translate(0 0)" fill="#231f20"/><path d="M1,1.4h0l.13,0-.1,0,.12.05A.27.27,0,0,1,1,1.38l.1.08L1,1.37l.07.1A.54.54,0,0,1,1,1.34L1,1.46a.66.66,0,0,1,0-.15l0,.14a.71.71,0,0,1,0-.14v.13a.23.23,0,0,1,0-.11L1,1.45,1,1.35l-.08.11,0,0a.51.51,0,0,0,.15-.35A.55.55,0,0,0,1,.71.5.5,0,0,0,.62.57.54.54,0,0,0,.26.71,1.33,1.33,0,0,0,.12.9.85.85,0,0,0,0,1.12a1.07,1.07,0,0,0,0,.47.36.36,0,0,0,0,.11,1.47,1.47,0,0,0,.1.22,1.3,1.3,0,0,0,.32.34.67.67,0,0,0,.23.1l.06,0L1,2.4a.48.48,0,0,0,.36-.14.52.52,0,0,0,.14-.36.47.47,0,0,0-.14-.35A.58.58,0,0,0,1,1.4Z" transform="translate(0 0)" fill="#231f20"/><path d="M15.92.84h0L16,.94a.19.19,0,0,1,0-.08V1a.19.19,0,0,1,0-.1l-.05.12A.24.24,0,0,1,16,.94L15.9,1,16,1,15.89,1,16,1,15.88,1,16,1h-.05l-.13,0,.08,0L15.77,1h0A.55.55,0,0,0,16,1a.44.44,0,0,0,.2,0,.46.46,0,0,0,.17-.09.35.35,0,0,0,.13-.14A.53.53,0,0,0,16.53.4.5.5,0,0,0,16.3.1.76.76,0,0,0,16.14,0l-.05,0a.86.86,0,0,0-.23,0l-.22,0a1.36,1.36,0,0,0-.21.1L15.34.2l-.09.08a1.22,1.22,0,0,0-.15.17l0,.09A1.43,1.43,0,0,0,15,.76,1.64,1.64,0,0,0,15,1l0,.19c0,.06,0,.11.07.17a.58.58,0,0,0,.13.14.56.56,0,0,0,.17.09.46.46,0,0,0,.2,0,.6.6,0,0,0,.19-.06.5.5,0,0,0,.23-.3l0-.13a.59.59,0,0,0-.07-.26Z" transform="translate(0 0)" fill="#231f20"/></svg>