<svg xmlns="http://www.w3.org/2000/svg" width="8.68" height="9.13" viewBox="0 0 8.68 9.13"><path d="M.92,2.24,6,1a.5.5,0,0,0-.27-1l-5,1.24C0,1.43.3,2.39.92,2.24Z" transform="translate(0 -0.01)" fill="#231f20"/><path d="M3.67.12A.85.85,0,0,0,2.45.68a3.91,3.91,0,0,0,0,1.86L3.1,7a.5.5,0,1,0,1,0L3.64,3.56,3.42,1.89a2.59,2.59,0,0,1-.07-.73S3.41,1,3.4,1a0,0,0,0,0,0,0,.69.69,0,0,1-.25,0c.57.31,1.07-.55.51-.86Z" transform="translate(0 -0.01)" fill="#231f20"/><path d="M.63,9.13l7.68-1a.5.5,0,0,0-.26-1l-7.69,1A.5.5,0,0,0,0,8.78a.52.52,0,0,0,.62.35Z" transform="translate(0 -0.01)" fill="#231f20"/></svg>