<svg xmlns="http://www.w3.org/2000/svg" width="12.48" height="12.75" viewBox="0 0 12.48 12.75"><path d="M4.5.36,4.1,2.89a.52.52,0,0,0,.35.62.5.5,0,0,0,.61-.35L5.46.63A.51.51,0,0,0,5.12,0,.52.52,0,0,0,4.5.36Z" transform="translate(-2.27)" fill="#231f20"/><path d="M3.64,5.64l0,0-.06,0,.1,0,.17-.05h.27c.1,0-.12,0,0,0l.09,0,.17,0c.1,0-.09,0,0,0l.08,0,.18.12L4.48,5.1c.09-.11,0,0,0,0l-.06.08a1.29,1.29,0,0,1-.16.17c-.1.11-.21.21-.32.31l-.17.14c.11-.1,0,0,0,0l-.08.05a3.73,3.73,0,0,1-.39.25A.52.52,0,0,0,3,6.71a.53.53,0,0,0,.49.37l1.85.06a.51.51,0,0,0,.5-.5.5.5,0,0,0-.5-.5L3.5,6.08,3.75,7a5.2,5.2,0,0,0,1.59-1.4.48.48,0,0,0,0-.39.61.61,0,0,0-.23-.3,2,2,0,0,0-2-.14A.5.5,0,0,0,3,5.46a.52.52,0,0,0,.69.18Z" transform="translate(-2.27)" fill="#231f20"/><path d="M3,9.74a.25.25,0,0,1-.16-.16.23.23,0,0,1-.11-.2s0-.12,0-.05l0-.06,0,0a.35.35,0,0,1,.34-.07.26.26,0,0,1,.19.12.16.16,0,0,1,0,.09v0c0-.05,0,.11,0,0,0,.07,0,.08,0,0l0,0s-.08,0-.11.06.07,0,0,0h0s.09.06,0,0a5.33,5.33,0,0,1,.42.4l-.07-.61a3.21,3.21,0,0,1-.19.31l-.12.17c0-.06-.06.06-.07.08a3,3,0,0,1-.24.26l-.13.12-.1.08a.5.5,0,0,0-.2.62.48.48,0,0,0,.59.29,3.45,3.45,0,0,1,.43-.12l.1,0c.12,0-.08,0,0,0H4c.09,0-.06,0,0,0l.11,0c.07,0,0,0,0,0l.09.06c-.1-.06,0,0,0,0s0,0,0,0,0,0,0,0,0,0,0,.06,0-.08,0,0a.34.34,0,0,0,0,.1c0-.11,0,0,0,0s0-.08,0,0a.41.41,0,0,1,0,.09l0,.05s0-.05,0,0L4,11.62c-.07.08.06,0,0,0l-.1.06c.08,0-.05,0-.07,0l-.09,0H3.46a2.8,2.8,0,0,1-.56-.08.5.5,0,1,0-.27,1,2.59,2.59,0,0,0,1.78-.09,1.47,1.47,0,0,0,.76-1.28,1.17,1.17,0,0,0-.92-1.1,2.45,2.45,0,0,0-1.34.15l.39.91A4.38,4.38,0,0,0,4.5,9.86a.51.51,0,0,0-.08-.61c-.37-.3-.66-.72-1.2-.71a.83.83,0,0,0-.81,1,.67.67,0,0,0,1.12.37c.33-.34.28-1-.25-1.16a.5.5,0,0,0-.27,1Z" transform="translate(-2.27)" fill="#231f20"/><path d="M7.43,2.54l0,0,0-.38v0L7.52,2l.39-.07.18.18,0,0,.07.25c-.13.12-.15.18-.07.17h.07a1.41,1.41,0,0,0,.41-.07c.23,0,.46-.07.7-.09q.74-.08,1.47-.09a16,16,0,0,1,2.94.23.52.52,0,0,0,.62-.35.52.52,0,0,0-.35-.62,17.17,17.17,0,0,0-5.16-.11c-.57.07-1.86.15-1.61,1.07s1.53.4,1.14-.43a.5.5,0,0,0-.68-.18.52.52,0,0,0-.18.69Z" transform="translate(-2.27)" fill="#231f20"/><path d="M8.14,6.64a23.53,23.53,0,0,1,5.17-.14.5.5,0,0,0,.5-.5.51.51,0,0,0-.5-.5,24,24,0,0,0-5.43.18.5.5,0,1,0,.26,1Z" transform="translate(-2.27)" fill="#231f20"/><path d="M6.79,11.38q3.73.19,7.47.08a.5.5,0,0,0,0-1q-3.74.12-7.47-.08c-.64,0-.64,1,0,1Z" transform="translate(-2.27)" fill="#231f20"/></svg>