<svg xmlns="http://www.w3.org/2000/svg" width="10.63" height="11.4" viewBox="0 0 10.63 11.4"><path d="M9.35,1.06l.8-.05a.5.5,0,0,0,0-1A16,16,0,0,0,.79,2.53c-.55.37-1,1-.66,1.64a2.72,2.72,0,0,0,1.61,1A23,23,0,0,0,7,6.39c.64.07.64-.93,0-1a21.69,21.69,0,0,1-4.2-.9c-.34-.11-.69-.23-1-.36-.17-.06-.6-.18-.69-.37s1.13-.9,1.4-1A15.43,15.43,0,0,1,10.15,1V0l-.8,0c-.64,0-.64,1,0,1Z" transform="translate(0 0)" fill="#231f20"/><path d="M6.63.68a29.81,29.81,0,0,0-.72,8.47c0,.64,1,.64,1,0A28.61,28.61,0,0,1,7.6,1c.14-.63-.82-.9-1-.27Z" transform="translate(0 0)" fill="#231f20"/><path d="M8.84.56q0,5.19.35,10.36c.05.64,1.05.65,1,0Q9.85,5.74,9.84.56a.5.5,0,0,0-1,0Z" transform="translate(0 0)" fill="#231f20"/></svg>