<svg xmlns="http://www.w3.org/2000/svg" width="7.91" height="6.55" viewBox="0 0 7.91 6.55"><path d="M2.45.78a.58.58,0,0,0,.93.47A.67.67,0,0,0,3.47.16c-.94-.67-1.76.91-2.09,1.56A8.39,8.39,0,0,0,.52,4.44a1.73,1.73,0,0,0,.24,1.4,1.19,1.19,0,0,0,1.12.32,1.39,1.39,0,0,0,1-.9,2.54,2.54,0,0,0-.05-1.61.52.52,0,0,0-.62-.35A2.05,2.05,0,0,0,1,4.34.5.5,0,0,0,1.82,5l.82-.78-.79-.61-.34.8A.52.52,0,0,0,1.69,5a.5.5,0,0,0,.69-.17l.33-.81a.5.5,0,0,0-.78-.6l-.81.78.78.61a1.1,1.1,0,0,1,.59-.59l-.62-.34A1.82,1.82,0,0,1,2,4.84a.53.53,0,0,1-.13.25.76.76,0,0,1-.18.09.25.25,0,0,1-.17,0c.05,0,0,0,0,0a.66.66,0,0,1,0-.09,2.47,2.47,0,0,1,.1-.93A7.2,7.2,0,0,1,2.75,1.37c.08-.12.19-.22.27-.34S2.62.62,2.78.46A.27.27,0,0,1,3,.37l.26.07h0L3.4.61l.05.17c0-.65-1-.64-1,0Z" transform="translate(-0.48)" fill="#231f20"/><path d="M8,.27A2.39,2.39,0,0,0,5.55,1.62a5.69,5.69,0,0,0-.85,3,2,2,0,0,0,.65,1.49A1.84,1.84,0,0,0,7,6.5a1.65,1.65,0,0,0,.87-2.56,1.57,1.57,0,0,0-2.74.61.51.51,0,0,0,.61.62c.18,0,.3.11.36.26a.51.51,0,0,0,.69.18.53.53,0,0,0,.18-.69A1.33,1.33,0,0,0,5.43,4.2L6,4.82c.08-.43.68-.67,1-.33a.64.64,0,0,1-.44,1.06c-.74,0-.91-.7-.85-1.31a5.09,5.09,0,0,1,.63-2A2.66,2.66,0,0,1,7,1.44a1,1,0,0,1,.78-.21A.5.5,0,0,0,8.37.88.5.5,0,0,0,8,.27Z" transform="translate(-0.48)" fill="#231f20"/></svg>