<svg xmlns="http://www.w3.org/2000/svg" width="10.03" height="9.68" viewBox="0 0 10.03 9.68"><path d="M2.6,9.41A5.19,5.19,0,0,1,1.21,7.1a3.67,3.67,0,0,1,.06-2.65,2.07,2.07,0,0,1,1.94-.9A6.54,6.54,0,0,1,6,4.62c.56.32,1.07-.55.5-.86A7.19,7.19,0,0,0,3.11,2.55,3.06,3.06,0,0,0,.46,3.85,4.49,4.49,0,0,0,.2,7.21a6.23,6.23,0,0,0,1.69,2.9c.46.45,1.17-.25.71-.7Z" transform="translate(0 -0.57)" fill="#231f20"/><path d="M6.36.79,5.51.59a.5.5,0,0,0-.38.91c1.38,1,2.73,2,4.05,3l.1-.79L6,5.3A.5.5,0,0,0,5.77,6a.51.51,0,0,0,.69.18L9.79,4.59a.5.5,0,0,0,.1-.78Q7.81,2.16,5.63.64l-.38.91.85.2c.62.15.89-.82.26-1Z" transform="translate(0 -0.57)" fill="#231f20"/></svg>