<svg xmlns="http://www.w3.org/2000/svg" width="469.26" height="679.15" viewBox="0 0 469.26 679.15"><path d="M209.87,0A264.19,264.19,0,0,0,33.62,95.11,250.54,250.54,0,0,0,14,122.71C7.31,133.69,1.31,145.58.18,158.6-2,183.29,15.65,204.18,35.52,216.31c11.29,6.89,23.69,11.86,36.07,16.39a355.58,355.58,0,0,0,39.9,12c51.29,12.14,106,12.17,155.91-5.87A223,223,0,0,0,329.09,205,193.54,193.54,0,0,0,355,180.58c7.93-9,15.4-18.86,19.2-30.38,3.48-10.55,3-22.34-3.82-31.48-5.52-7.44-14-11.83-22.84-14.08-20.23-5.17-42.39-.76-62,5.14a205.09,205.09,0,0,0-106.74,76.44c-28,39.15-44.23,93.36-23.53,139.35,19,42.35,63.68,66.35,105.81,80.23,52.92,17.43,109,22.3,164.39,23.85,13.77.38,27.55.56,41.33.67l-1.26-4.66c-56.49,36.83-120,60.38-183.2,82.95C217.15,531.92,150.53,554.8,81,560.12c-13.18,1-32.67,3.22-36.92-13.26-1.84-7.12-1.06-15.17-.07-22.37a108.12,108.12,0,0,1,4.66-19.6c9.1-27.17,28.08-50.07,49.12-69C121,415.05,147.69,398,175,383.08c28.66-15.71,59-29.34,90.28-39,1.84-.57,4.42-1.6,6.26-.47,1.5.9,1.85,3,2.13,4.58a114.83,114.83,0,0,1,1.14,13,234.58,234.58,0,0,1,.18,23.72,237.76,237.76,0,0,1-7.17,48.55,233.72,233.72,0,0,1-17,46.05c-6.42,13-14,25.91-25.12,35.42a48.43,48.43,0,0,1-18.16,9.91l3.17,2.41c-.61-19.65,9.66-37.12,21.09-52.34,12.46-16.61,26.48-32.13,40.64-47.29s28.68-30,43.27-44.76c14.32-14.47,29.29-29.67,46.72-40.4,3.94-2.42,8.52-4.76,13.26-4.67,5,.09,8.33,3.15,10.91,7.09,5.26,8.06,9.33,17.2,13,26.08a301.19,301.19,0,0,1,16.34,55c4,19.54,6.59,39.33,8.74,59.15,2.12,19.44,4.11,38.91,5.57,58.41,3.33,44.22,3.26,90.31-14.35,131.81-1.24,2.93,3.06,5.48,4.31,2.53,16.21-38.21,18.22-80.09,15.92-121-1.18-21-3.35-41.95-5.51-62.88-2.1-20.28-4.48-40.56-8.17-60.62s-8.68-39.85-16.07-58.84a230.25,230.25,0,0,0-12.56-27.16c-4.07-7.42-9.25-14.77-18.65-14.55-9.7.23-18.19,7-25.54,12.62a290.14,290.14,0,0,0-23.82,20.48c-15.94,15.14-31.15,31.14-46.35,47s-30.33,32.38-44.28,49.63c-12.11,15-24.41,31.41-28.29,50.69a60.92,60.92,0,0,0-1.18,14,2.52,2.52,0,0,0,3.16,2.41c14.31-4.09,25.29-14.37,33.78-26.24,9.26-12.95,16.1-27.8,21.75-42.63A241.88,241.88,0,0,0,279.71,360c-.24-3.85-.53-7.72-1-11.54-.38-3-1.11-6.12-3.42-8.25-2.57-2.35-6.09-2.29-9.27-1.54a127.27,127.27,0,0,0-12.39,4.08q-24.28,8.44-47.68,19.21c-31.18,14.31-61.39,31.54-89,52-24,17.76-46.45,38.85-61.67,64.76a123.75,123.75,0,0,0-15.45,40.49c-2.26,12.57-4.8,30.89,6.09,40.33,11.24,9.74,29.93,6.21,43.32,4.91a495,495,0,0,0,54-8.37c36.05-7.56,71.28-18.55,106.08-30.51,33.92-11.66,67.78-23.7,101.14-36.91,32.82-13,65.15-27.45,95.72-45.17Q457.33,437,468.09,430a2.52,2.52,0,0,0-1.26-4.66c-53.26-.43-106.95-1.78-159.31-12.47-44.91-9.17-93.08-24.66-126-58.21-15.89-16.19-26.67-36.57-29.62-59.18C148.65,270.63,154,245,164,222.28c17.32-39.51,48.75-72.17,86.6-92.58A192.77,192.77,0,0,1,311.28,109c17.36-2.8,40.76-3.49,53.63,10.87,17.42,19.43-3,46-16.65,60.74a202.18,202.18,0,0,1-53.94,40.94c-43.62,23-93.62,30.28-142.38,25.11a332.12,332.12,0,0,1-77.27-18.14c-22.78-8.2-47.84-18.46-61.41-39.75-6.49-10.2-9.72-22.15-7.54-34.18,2.25-12.43,8.86-23.64,15.61-34.12A249.73,249.73,0,0,1,63.52,70.87,260.58,260.58,0,0,1,178.29,10.3,244.55,244.55,0,0,1,209.87,5c3.18-.31,3.21-5.32,0-5Z" fill="#4054a5"/></svg>