<svg xmlns="http://www.w3.org/2000/svg" width="3209.42" height="2661.28" viewBox="0 0 3209.42 2661.28"><path d="M658.62,638.62a539.91,539.91,0,0,0-44,281.08c0,.46.68.73.93.26,22.58-41.47,30.18-88.71,34.05-135.21,1.13-13.6,1.95-27.22,2.75-40.84,0-.66-.92-.63-1,0q-4,34.74-6.25,69.64c-.69,10.63-1.6,21.36-1.54,32,.06,8.4,1.07,17.3,5.78,24.49,9.09,13.86,27.54,14.75,42.32,12.17,17.43-3,34.17-9.81,49.7-18.16,32.74-17.61,60.81-42.42,91.19-63.59,7.58-5.29,15.37-11.06,23.65-15.21,3.65-1.84,7.7-2.12,9.92,1.89a22.13,22.13,0,0,1,1.9,7q1.46,8.49,2.7,17,5,34.35,6.86,69.06a753.21,753.21,0,0,1-5.21,136.92q-1.18,9.11-2.59,18.18c-.06.37.34.87.73.57,8.88-6.83,12.2-17.79,14.45-28.31,3.15-14.75,5.67-29.66,7.87-44.58a809.34,809.34,0,0,0,8.24-91.18q.88-26.21,0-52.44a.5.5,0,0,0-1,0c1.69,56.89,12.67,112.93,25.88,168.13,6.52,27.25,13.43,54.43,20.45,81.56,6.75,26.1,13.85,52.12,22.23,77.75a595.94,595.94,0,0,0,28.93,73.31c10,20.92,21.2,42.73,38.28,58.87,7.39,7,16,12.77,25.77,15.87,11.36,3.63,23.44,3.2,34.85,0,22.32-6.18,42.17-21.3,57.92-37.89,30.44-32.07,48.09-75,53.52-118.59,6.11-48.91-2.84-100.14-26.23-143.61-21.78-40.5-56.81-73.84-99-92.42-44-19.39-93.26-20-139.38-8-48.6,12.66-93.18,37.82-132.93,68.07a545,545,0,0,0-104.5,104.88q-11.14,14.73-21.25,30.19c-.35.54.52,1,.87.5a544.87,544.87,0,0,1,96.05-110.69c37-32.55,78.61-60.93,124.48-79.47,44.91-18.16,94.77-26.69,142.56-15.74,44.15,10.11,83.7,36.56,111.71,71.93,30.83,38.91,47,88.3,48.34,137.7,1.26,44.9-9.89,90.67-34.49,128.52a172.32,172.32,0,0,1-46,48c-20.4,14.13-46.44,24.13-70.73,14-20.69-8.6-34.83-28.09-45.62-46.92-12.87-22.47-23.35-46.36-32.4-70.6-18.42-49.32-30.85-100.65-43.68-151.64-13.53-53.76-26.44-107.94-32-163.21q-2-20.2-2.67-40.52h-1a810.36,810.36,0,0,1-14.15,178c-2.53,13.13-4.61,28.88-16,37.6l.73.57a755.73,755.73,0,0,0,8.61-136.24q-.95-34.46-5-68.72-2-16.53-4.69-33c-1-6.1-2.12-17.1-11.11-14.47-4.21,1.24-8.15,4.34-11.82,6.66q-5.91,3.75-11.66,7.71c-7.73,5.3-15.29,10.84-22.8,16.45-15,11.2-29.77,22.71-45.27,33.22-15.22,10.31-31.21,19.7-48.42,26.32-16.16,6.22-36,12.31-53.25,7a27.84,27.84,0,0,1-19-19.86c-2.61-9.61-1.73-19.85-1.22-29.66q1.81-34.92,5.38-69.71.9-8.7,1.89-17.38h-1c-2.74,46.6-5.64,94.08-20.64,138.65a230.61,230.61,0,0,1-16,36.89l.93.25A541.63,541.63,0,0,1,636.8,699a535.52,535.52,0,0,1,22.69-59.87c.26-.58-.6-1.09-.87-.5Z" transform="translate(0 -0.06)" fill="#93abb2"/><path d="M2271.92,922.18a112.28,112.28,0,0,0-71.61,14.67c-10.35,6.1-20.55,14-27.67,23.76-6.22,8.53-11.47,20.69-7,31.13,5.38,12.46,20.37,13.8,32.18,14.13l-.13-1-9,3.7.39.91,127.49-57.34,36.06-16.22-.73-.57c-8.52,26.07-27.17,46.71-47,64.93-20.29,18.65-42.44,35.47-60.62,56.31-9.83,11.28-18.31,23.74-24,37.62-.16.4.29.67.62.62,23.48-3.8,47-7.5,70.71-9.61,23.38-2.08,47-2.61,70.33.12a223.2,223.2,0,0,1,34.58,6.77c9.56,2.7,19.56,5.78,27.39,12.15a23.8,23.8,0,0,1,7.94,10.67,19.36,19.36,0,0,1-1.47,14.92c-4.63,9.16-13.73,15.82-22.77,20.22-9.23,4.48-19.31,7-29.4,8.64a264.82,264.82,0,0,1-34.78,3.22,289.94,289.94,0,0,1-71.58-6.78,260.47,260.47,0,0,1-32.86-9.43,106.21,106.21,0,0,1-25.26-12.73c-7.54-5.35-14.13-12.28-17.85-20.85-4.63-10.72-4-22.65-1.08-33.73,2.78-10.71,7.34-21,12.09-30.92q6.57-13.79,14.48-26.86A313.8,313.8,0,0,1,2304,930.23c17.56-12.87,37.17-25.85,59.09-29.27,10.84-1.7,22.35-.92,32.5,3.46a49.26,49.26,0,0,1,21.72,18.93c10.66,16.59,13.39,37.31,13.2,56.65a183.31,183.31,0,0,1-11.72,61.3,243.23,243.23,0,0,1-29.77,55.87,306.9,306.9,0,0,1-42.48,48,401.84,401.84,0,0,1-50.67,39.67,519.26,519.26,0,0,1-55.93,32.15c-19.4,9.68-39.32,18.3-59.52,26.15q-14.61,5.67-29.39,10.84l.48.83,17.84-19.94c.42-.48-.28-1.19-.71-.71l-17.83,19.94c-.31.35,0,1,.48.84,20.9-7.33,41.57-15.32,61.83-24.27a591,591,0,0,0,59.31-30.06,446.45,446.45,0,0,0,54.41-37.15,344.9,344.9,0,0,0,47.33-45.55,267.84,267.84,0,0,0,36-54.15c9.45-19.06,16.38-39.46,19.49-60.54,3-20,3-41.31-2.76-60.82-2.66-9-6.7-17.75-12.68-25.06a48.8,48.8,0,0,0-24.27-16c-22-6.33-44.64,1.73-63.62,12.87a292.66,292.66,0,0,0-50.79,38.27,315.55,315.55,0,0,0-41.32,46.9,311.12,311.12,0,0,0-31.5,54.8c-8.62,19.35-17.07,42.66-5.58,62.67,9.37,16.31,27.87,25.2,45,31a286.47,286.47,0,0,0,71,14.37c23.5,1.76,47.77,1.07,70.93-3.59,10.05-2,20.05-5.09,28.93-10.33,8.26-4.88,16.63-12.1,19.74-21.47,2.92-8.83-.86-17.27-7.71-23-7.53-6.29-17.08-9.46-26.35-12.17-22.87-6.7-46.76-9.23-70.54-9.22-24.29,0-48.5,2.6-72.53,6-11.67,1.66-23.31,3.51-34.95,5.39l.62.62c10.5-25.53,30.23-45.53,50.49-63.65,20.41-18.24,42.36-35.23,59.6-56.68,9.28-11.56,16.91-24.4,21.53-38.53.15-.46-.37-.73-.73-.57l-127.5,57.35-36,16.22c-.52.23-.14,1.13.38.91l9-3.7a.5.5,0,0,0-.13-1c-10.67-.3-24-1.15-30.16-11.37-6-10-1-22.6,5-31.29,6.62-9.58,16.36-17.29,26.19-23.35a112.34,112.34,0,0,1,32.8-13.62,108.88,108.88,0,0,1,39.93-2.1c.63.08.9-.88.27-1Z" transform="translate(0 -0.06)" fill="#93abb2"/><path d="M1283.66,1873.85c-59-39.06-135.13-48.77-202-25.76a.5.5,0,0,0,.13,1c49.58,1.57,93.27-25.21,135-48.5,42-23.45,93.6-47.58,142.65-33,23.67,7,42.52,23.52,55,44.55a148.29,148.29,0,0,1,14.1,32.4q2.49,8.09,4.2,16.37c1.11,5.29,1.46,11.1,3.49,16.14,7.78,19.37,34.74,2,46.26-4.06a383.69,383.69,0,0,0,53.76-34.36c69.08-52.25,122-121.9,183.12-182.6,15.4-15.3,31.33-30.09,48.12-43.87,8.78-7.21,17.8-14.14,27.07-20.71s18.87-13.27,29.84-16.9c12.75-4.22,26.86-3.27,34.17,9.5,5.85,10.2,7.5,23.79,9.74,35.19a427,427,0,0,1,7.83,71.22c2.48,94.43-25.52,189.69-79.78,267.12q-10.56,15.08-22.42,29.17a.5.5,0,0,0,.71.71,230.38,230.38,0,0,0,44.9-56.48c10-17.74,19.27-40,5.27-58.29-12.3-16.05-34.6-22.34-53.35-26.72-25.21-5.9-51.18-7.58-77-8.41a2080.7,2080.7,0,0,0-331.08,16.3q-92.55,11.89-183.78,31.94c-.59.13-.39.93.14,1,135.46,13.35,271.57-2,405.07-25.39,38.07-6.65,76-14,113.93-21.47a.5.5,0,0,0,0-1,745.62,745.62,0,0,0-234.7.36.51.51,0,0,0-.22.84c37,32.29,90.93,30.73,137,31.6q87.27,1.66,174.49-3.46a2266.51,2266.51,0,0,0,344.59-47q96.22-20.73,190.37-49.81c.61-.19.35-1.16-.27-1A2264.79,2264.79,0,0,1,1886.3,1858q-107.16,11.6-215.11,13c-35.23.43-70.55.3-105.76-1.22-29.71-1.29-61.23-4.5-87.21-20.26-3.17-1.93-8.56-4.58-10.73-7.58-1.72-2.36-1.71-1.53,1.55-2.4a40.5,40.5,0,0,1,4.71-.72q15.21-2.28,30.53-3.91,27.18-2.89,54.55-3.77a736.24,736.24,0,0,1,109.19,4.58q8.2.94,16.38,2.09c2,.28,10.66,2.67,11.76,1.74-1.75,1.48-9.24,1.7-11.84,2.21l-14.21,2.78q-27.27,5.29-54.59,10.34c-36.46,6.69-73,12.9-109.7,18.21-73.78,10.7-148.24,17.8-222.85,17.72q-27.62,0-55.21-1.42-13.21-.67-26.4-1.7-6-.47-12-1c-1-.09-6.43-1.26-7.2-.67.72-.55,5.69-1,7.08-1.29q52.59-11.31,105.7-19.92a2110.56,2110.56,0,0,1,220.78-23.94q54.9-3,109.9-3.22c35.79-.12,72-.29,107.61,3.22,18,1.78,36,4.81,53.32,10.22,14.18,4.43,29.54,10.87,38.41,23.45,11.12,15.78,4.91,34.78-3.22,50.33a223.37,223.37,0,0,1-28.55,42c-5.08,5.92-11,11.07-16.13,16.95-3.91,4.53,1.49-1.09,2.55-2.4q3.72-4.58,7.29-9.26a425.38,425.38,0,0,0,25.22-36.86,443.15,443.15,0,0,0,37.16-77A451.66,451.66,0,0,0,1877,1684.61a419.32,419.32,0,0,0-12.34-86.54c-2.88-11.32-7.53-23.11-20-26.22-11.57-2.87-24,2.22-34,7.82-23.3,13.12-44.54,31.6-64.32,49.42-20.71,18.66-40.21,38.62-59.27,58.94-37.64,40.13-73.65,82-114.44,119-20.58,18.68-42.39,36.06-65.93,50.88a348.06,348.06,0,0,1-35.85,19.77c-6.77,3.21-14.42,7.58-22.17,7.27-12.23-.5-12.71-13.39-14.53-22.52-5.29-26.57-16.16-53.28-35.58-72.7-20-20-47.33-28.5-75.18-27.22-63.84,2.92-114,46.08-170.4,70.26-15,6.43-30.63,11.58-46.8,14q-6,.88-12,1.23c-2,.11-9.22-.7-10.33.45,1.58-1.64,7.42-2.38,9.47-3,4.45-1.28,9-2.43,13.47-3.42a231.59,231.59,0,0,1,93.41-1.09,228.69,228.69,0,0,1,83,33.78c.54.36,1-.5.5-.86Z" transform="translate(0 -0.06)" fill="#93abb2"/><path d="M1774.36,593.31q-92.79,6.57-184.88,20.46-25.85,3.9-51.59,8.37a.5.5,0,0,0,0,1c33.59,5.72,67.69,7.75,101.73,7.41,34.51-.35,68.94-3.06,103.24-6.62,19.48-2,38.93-4.32,58.38-6.63l-.43-.75c-5.71,12.2-19.25,17.22-31.36,20.72-16.32,4.72-32.78,9-49.17,13.46l-29,7.91a.51.51,0,0,0,.13,1c47.51-1.64,94.66,5.8,141.38,13.45,45.86,7.5,92,15.53,138.67,15.21,25.67-.17,51.32-3,76.15-9.72a.5.5,0,0,0-.26-1c-44.9,12-91.72,11.23-137.56,5.93-46.68-5.39-92.73-15.07-139.36-20.74-26.21-3.19-52.61-5.08-79-4.17l.13,1,53.07-14.49c8.37-2.29,16.77-4.48,25.1-6.88a85.71,85.71,0,0,0,17.8-6.91c6-3.34,11.2-8,14.15-14.27.15-.31,0-.81-.43-.76-34.13,4-68.27,8.07-102.55,10.62-34,2.52-68.1,3.6-102.13,1.71a518.06,518.06,0,0,1-58.4-6.45v1q91.53-15.89,184.12-24.53,26-2.42,52.08-4.26c.64,0,.65-1,0-1Z" transform="translate(0 -0.06)" fill="#93abb2"/><path d="M819.07,1647,730,1670.84l.56.73a388.13,388.13,0,0,1,77.74-77l-.68-.69-15.93,30L784,1638.42c-1.79,3.36-3.85,7-3.77,11a7.31,7.31,0,0,0,5,6.86c4.31,1.65,9.38,2,13.93,2.51a209.59,209.59,0,0,0,32.37,1.26c21.73-.71,43.31-3.86,64.82-6.81q33-4.53,65.91-9.63c24.8-3.8,49.59-7.75,74.37-11.7l-.63-.48a11,11,0,0,1-11.62,10.39l.5.5-.14-57.33c0-18.57.14-37.15-.31-55.71-.44-17.91-1.73-35.9-5.76-53.4-1.37-6-2.37-15.28-10.48-14.6-6.41.54-12.59,4.51-17.29,8.66-5.4,4.76-9.72,10.63-13.7,16.58-4.77,7.13-9.31,14.42-13.85,21.69q-14.18,22.68-27.54,45.88-26.82,46.56-50.21,95c-15.45,32-30,64.52-42.81,97.67-12.73,33-23.32,67.15-26.8,102.47-3,30.14-3.48,69.35,22.57,90.24,11.46,9.19,25.89,12.39,39.89,7.48,7.55-2.64,14.43-6.94,20.93-11.53a164.07,164.07,0,0,0,17.17-13.94c22.2-20.65,39.44-47.93,46.92-77.44,4-15.94,5-33.51-1.63-48.92-5.15-12-15.3-22.3-27.67-26.82a36.72,36.72,0,0,0-18.66-1.79c-.64.11-.37,1.07.26,1,14.15-2.34,27.93,4.62,37.07,15.17,10.48,12.1,13.75,28.31,12.56,44-1.23,16.11-6.71,31.85-13.84,46.25a165.88,165.88,0,0,1-24.41,36.31,162.25,162.25,0,0,1-33.2,28.72c-6.93,4.5-14.46,8.47-22.67,9.94a37.36,37.36,0,0,1-22.17-3c-30.93-14.12-34.4-52.47-33.09-82.2,1.51-34.11,10.3-67.44,21.72-99.47,11.5-32.24,25.34-63.73,39.78-94.75q21.45-46,46-90.53t52.31-87.49c7.32-11.31,16.91-25.53,31.3-28,2.58-.44,5.28-.07,6.9,2.17,1.3,1.8,1.79,4.1,2.35,6.22q1.64,6.2,2.82,12.5a238.36,238.36,0,0,1,3.3,26.22c1.29,17.41,1.14,34.89,1.18,52.33l.12,54,.07,26.5a.51.51,0,0,0,.5.5,12.05,12.05,0,0,0,12.62-11.39.5.5,0,0,0-.63-.48c-41.78,6.66-83.57,13.32-125.46,19.26-20.9,3-41.84,6.1-62.89,7.85a277.94,277.94,0,0,1-31.08,1c-5.16-.15-10.31-.48-15.45-1s-10.48-1-15.3-2.51c-6.61-2.14-5.29-8.69-2.9-13.62,2.6-5.36,5.58-10.55,8.38-15.81l16.83-31.67c.22-.41-.25-1-.68-.69a388.89,388.89,0,0,0-62.91,58.52q-7.89,9.16-15.19,18.83c-.28.36.18.83.57.73L819.33,1648a.5.5,0,0,0-.26-1Z" transform="translate(0 -0.06)" fill="#93abb2"/><path d="M2502.22,1881.88c-24.44.43-50.41-21.71-72.87-3.37-6.19,5-10.75,13.09-7.28,21,4.46,10.25,18.43,13.48,28.21,15.38,29.28,5.67,59-3.08,86.26-13.18,30.7-11.38,60.48-24.17,92.56-31.38a385.9,385.9,0,0,1,114.77-8.09.51.51,0,0,0,.5-.5c10.22-106.4,20.45-213.59,12.19-320.49a826.72,826.72,0,0,0-11.48-88.14c-.1-.52-.82-.44-1,0-33.24,102.53-66.51,205.18-92.67,309.81q-11.13,44.51-20.36,89.45a.5.5,0,0,0,1,.27,1459.88,1459.88,0,0,0,68.51-339.41q4-49.8,4.55-99.8c0-.61-.78-.62-1-.13a1219.68,1219.68,0,0,1-111,206.12q-33,49.2-70.66,95c-2,2.47-5.37,9.47-4.88,2.79.35-4.69,1.47-9.44,2.19-14.1q2.61-16.93,5.08-33.91c2.84-19.84,5.44-39.72,7.49-59.66,4.94-48.11,6.58-96.61,1.17-144.76a.51.51,0,0,0-.85-.35A646.22,646.22,0,0,0,2429,1568.82q-4.84,6.15-9.54,12.41c-1.74,2.33-2.36,5.59-3.39,2.31-.77-2.5.43-7.12.55-9.76q.88-19.53.15-39.08a483.09,483.09,0,0,0-9.35-77.68c-.08-.41-.57-.43-.84-.22a1484.88,1484.88,0,0,1-206.71,134q-6.54,3.51-13.11,6.94c-1.14.6-8.92,5.8-10.08,5.12.78.46,3.77-9.46,3.85-9.86a34.92,34.92,0,0,0,.29-10.75c-1.75-14.58-11.28-26-22.93-34.23-15.27-10.79-33.45-18.06-50.59-25.31q-26-11-52.84-19.75c-155.63-50.94-322.46-46.43-483-26.31-95.13,11.93-189.67,28.54-284.29,43.92-.64.11-.37,1.07.26,1,127.37-20.71,254.86-44.39,383.68-54,120.65-9,243.81-4.55,360.6,29.47a674.82,674.82,0,0,1,94.28,35.09c14.5,6.69,30,13.51,41.27,25.13,12,12.28,17.8,31.89,7.36,46.93-.31.44.27.89.68.68a1492.14,1492.14,0,0,0,134.13-77.72q32.76-21.36,64.37-44.42,7.62-5.57,15.17-11.23,3.78-2.84,7.54-5.69c1.63-1.24,6.72-6.52,8.57-6.56,4.49-.08,7.13,32.23,7.64,36.5a480.11,480.11,0,0,1,2.08,92c0,.54.67.61.93.25a645.53,645.53,0,0,1,107.64-114.6c1.93-1.61,4.6-4.94,7-5.73,3.47-1.15,2.79,2.78,3.07,5.71q1.11,11.31,1.71,22.67c.76,14.18,1,28.39.72,42.58-.49,28.48-2.8,56.91-6.05,85.2-3.81,33.07-8.92,66-14.05,98.85-.07.43.48.91.84.48a1222,1222,0,0,0,109.22-153.2q24.58-40.86,45.94-83.57,10.37-20.76,19.94-41.9,4.78-10.57,9.36-21.23c.27-.63,2.84-7.16,3.07-7.1s-.23,13.06-.25,14a1454.58,1454.58,0,0,1-66.78,403.8c-1.33,4.2-3.5,8.88-4.24,13.22-1,6,.41-.19.94-2.76q2.88-13.83,6-27.6,5.54-24.8,11.67-49.45c8.39-33.8,17.53-67.4,27.18-100.86,19.32-67,40.68-133.32,62.16-199.62.38-1.2,3.62-10.69,3.48-10.75,1.24.51,1.91,8.42,2.15,9.82q2.49,14.53,4.41,29.15,3.49,26.54,5.31,53.24c2.39,34.24,2.9,68.6,2.17,102.91-.73,35-2.76,69.85-5.42,104.7q-2,26.16-4.41,52.29-1.15,12.71-2.36,25.4-.53,5.64-1.07,11.28c-.35,3.71.47,11-1.35,14.08-2.1,3.57-9.72,1.62-13.18,1.46s-7.17-.28-10.75-.34q-13.46-.22-26.89.48a384.67,384.67,0,0,0-45.53,5.16c-32.59,5.66-63.21,16.4-93.89,28.46-29.43,11.58-61,24-93.25,21.12-12.8-1.16-43.07-6.26-37.79-25.34,4.6-16.65,25.51-19.79,39.56-16.34,13.52,3.31,26.12,9.49,40.3,9.24a.5.5,0,0,0,0-1Z" transform="translate(0 -0.06)" fill="#93abb2"/><path d="M1447.51,1166.24c12.69-10.81,29.39-14.4,45.37-17.29,19.17-3.48,38.35-6.85,57.53-10.27q57.36-10.23,114.72-20.47c36.38-6.5,72.76-13.16,108.65-22,35.29-8.73,69.9-19.81,103.22-34.4,33.57-14.69,66.11-31.84,100.71-44.09q6.39-2.26,12.87-4.28l-.57-.74c-28.92,38.09-69.18,65.51-111.85,86.14-47,22.69-97.16,37.27-146.47,53.77-28.53,9.55-56.86,19.8-84.13,32.54-.42.19-.26.79.11.91a53.88,53.88,0,0,0,35.15-.68c.41-.15.53-.88,0-1a1493.93,1493.93,0,0,1-154.67-34.31q-21.57-6-42.94-12.66l.3.74c8.37-14.82,30-7.22,41.93-2.12a232.56,232.56,0,0,1,46.37,25.84c28.79,21.09,50.85,51.48,53.91,87.84,1.63,19.34-2.42,39-13.4,55.2l.92.39,4.85-15.87c.16-.53-.47-.76-.84-.49a126,126,0,0,1-45.09,22.26l.38.91q47.36-22.5,96-42.19,48.18-19.48,97.46-36.1,27.93-9.42,56.17-17.9a.5.5,0,0,0-.27-1q-50.27,15.12-99.58,33.18-48.63,17.82-96.13,38.49-27.27,11.85-54.13,24.63c-.52.25-.15,1.06.38.91a127.24,127.24,0,0,0,45.54-22.51l-.83-.48-4.86,15.86c-.17.57.61.84.92.39,20.32-30,16.77-70.58-.67-101-18.72-32.64-52-54.37-85.77-68.92-12.58-5.41-35.24-13.56-44.1,2.13a.51.51,0,0,0,.3.74,1493.8,1493.8,0,0,0,153.57,39q21.95,4.34,44,8v-1a52.92,52.92,0,0,1-34.61.69l.12.91c50-23.32,103.18-38.1,155.17-56,46-15.84,91.61-34.61,131.41-63,21.2-15.14,40.45-33,56.24-53.76.26-.35-.18-.86-.57-.73-34.66,10.82-67.1,27.26-100,42.3a649.39,649.39,0,0,1-104.9,37.44c-35.92,9.44-72.43,16.41-109,23q-57.79,10.41-115.62,20.63l-58.12,10.37c-15.86,2.83-32.58,5-46.84,13a56.52,56.52,0,0,0-9,6.31c-.49.42.22,1.12.7.71Z" transform="translate(0 -0.06)" fill="#93abb2"/><path d="M2381.47,749.47a748.47,748.47,0,0,1-229.24-125.56q-28.62-23-54.86-48.79a.5.5,0,0,0-.85.35l2.55,99.17c0,.66.91.62,1,0a667.48,667.48,0,0,1,36-144.1c.19-.53-.7-.91-.92-.39a707.3,707.3,0,0,1-78.31,138.68q-12.4,17.11-25.84,33.44c-2.22,2.7-3.42,6-4.49,1.25-.45-2-.53-4.16-.81-6.2q-1.43-10.3-3.38-20.52a406.44,406.44,0,0,0-62.11-150.65c-.21-.31-.85-.34-.91.12a845.81,845.81,0,0,1-33.85,146.43c-.46,1.4-.88,4.66-2.76,4.71-.9,0-3.7-2.49-4.73-3a25.75,25.75,0,0,0-10.36-2.08c-8.38,0-16.16,3.18-23,7.82-9.18,6.23-16.83,14.47-26.23,20.42a82.45,82.45,0,0,1-30.16,11.26c-21.58,3.71-43.75.77-65.25-2.08-23-3-45.64-5.57-68.88-4.4-25.89,1.31-51.53,5.41-77.38,7.15a512.13,512.13,0,0,1-76.45-1.06c-52.45-4.33-104.54-13.85-156.21-23.64-51.15-9.7-102.06-20.61-152.92-31.7Q1154,639.32,1077,622.4l-76.58-16.76-9.58-2.1c-1.62-.35-8.73-.95-9.57-2.09-2.2-3,7.77-12,9.86-14.53l24.75-29.54c8.63-10.3,16.56-22.9,31.82-21,11.2,1.39,22.37,6.37,32.89,10.28,21.39,8,42.34,17,63.39,25.84,40.67,17,82.77,33.61,127.2,36.57a204.23,204.23,0,0,0,33.18-.53.5.5,0,0,0,.13-1,507.09,507.09,0,0,0-140.37-29.93c-12.21-.82-24.39-.64-36.6-1.12-5.2-.2-1.17-.31,1.12-1.1q4.37-1.5,8.74-3c5.83-2,11.68-3.88,17.56-5.7,23.62-7.31,48.07-13.19,72.93-13.46,43.51-.47,90.73,18.06,106.21,62,6.74,19.14,6.34,41-4.43,58.57-10.31,16.86-28.06,27.26-46.77,32.34-18.33,5-41.23,6.81-59.61,1-25.94-8.19-26.27-41.58-28.62-64.08-5.2-49.92-2.93-102.13,9.33-150.93,2.3-9.18,5.64-19,12.41-25.91,8.59-8.76,20.94-9.07,30.64-1.9,8.55,6.32,14.33,15.95,18.88,25.38,5.15,10.65,9.82,21.57,14.47,32.45a1182.17,1182.17,0,0,1,49.2,138.43,1188.57,1188.57,0,0,1,31.32,141q5.87,36.9,9.39,74.13,1.71,18,2.85,36,.59,9,1,18c.12,2.55.46,5.2.35,7.74,0,.43.14,2.44.09,2.44-.3,0-1.89-4.48-2.08-4.94l-14.6-34.58c-.25-.59-1.11-.09-.86.5l17.72,42c.2.47,1,.22.93-.25a1189.4,1189.4,0,0,0-42-271.21,1182.38,1182.38,0,0,0-44.45-130.68c-8-19.66-15.6-40.39-26.23-58.79-6.71-11.61-17.63-25.37-32.65-23.88-14.53,1.44-22,15.88-25.86,28.34-6.43,20.9-9.17,43.54-11.24,65.25A462.6,462.6,0,0,0,1192,623q1.05,17.49,3.43,34.87c1.36,9.88,2.5,20.29,6,29.69,6.28,16.82,21,22,37.77,23.34s33.67-.19,49.52-5.44c31.23-10.35,53.62-36.92,50.59-70.91-3.13-35.15-28.7-62.29-60.94-74.12-39.89-14.63-83-7.16-122.45,5-11.34,3.48-22.56,7.33-33.77,11.2a.5.5,0,0,0,.13,1A506,506,0,0,1,1239,589.37a499.32,499.32,0,0,1,54.12,15.2c2.07.71,4.14,1.4,6.18,2.16,4.12,1.54,2.68.55.27,1.23-3.55,1-8.23.49-11.89.54a209,209,0,0,1-25.87-1.28c-70.94-7.81-133.52-46.47-200.36-68.35-7.24-2.38-15.16-5.08-22.83-3.24-7,1.69-11.9,7.31-16.39,12.61C1007.38,565.74,992.74,583.4,978,601a.5.5,0,0,0,.22.83c130.52,28.57,260.81,59,392,84.39,63.67,12.33,128.31,24.86,193.24,27.78,33,1.48,65.31-1.36,98.06-4.83,31.13-3.31,61.14-3.68,92.19.41,28.56,3.76,59.19,9.3,87.32.22,13.69-4.42,24.23-12.73,35.11-21.81,12.58-10.49,32.6-22.3,47.36-8.47a.51.51,0,0,0,.84-.22A846,846,0,0,0,1958,542.35c.42-2.63.82-5.27,1.21-7.9.15-1,.08-3.07.58-4,1.1-2-.17-1.84,1.68-.79,1.49.85,3.06,4.68,4,6.16,1.54,2.41,3,4.83,4.52,7.27q8.57,14.11,16,28.92a405.18,405.18,0,0,1,40.22,136.32c0,.38.55.72.85.35a707.82,707.82,0,0,0,84.61-126.22q9.26-17.68,17.48-35.86c1.2-2.65,2.39-5.31,3.55-8,.5-1.13,3.66-8.36,1.15-4.66-3.54,5.23-5,14.11-7,20.09a658.21,658.21,0,0,0-21,79.72q-1.92,9.79-3.55,19.63c-.51,3.07-1,6.13-1.46,9.2-.36,2.39-.24,7.18-1.34,9.35,1.93-3.8.24-13.14.12-18l-.57-22-1.1-42.69c0-1.18-1.06-10.39-.28-11,1.56-1.28,3.65,2.06,5,3.38q6.84,6.57,13.84,12.95a746.58,746.58,0,0,0,116.64,87.15,748.64,748.64,0,0,0,148.11,68.72c.62.21.88-.76.27-1Z" transform="translate(0 -0.06)" fill="#93abb2"/><path d="M1918.83,2136.75c-6.61-30.52-19.18-59.41-34.67-86.42-7.82-13.63-16.38-26.83-25.39-39.71-8.67-12.39-17.67-24.59-27.76-35.87-19.94-22.31-45.12-41.1-75.27-46.09a81.06,81.06,0,0,0-42.39,3.86c-12.37,4.76-23.29,12.58-32.82,21.71-10,9.58-18.57,20.55-26.57,31.82-3.5,4.91-7.47,9.82-9.66,15.49-1.63,4.21-3,10-.56,14.14a7.41,7.41,0,0,0,4.69,3.38.5.5,0,0,0,.26-1c-5.38-1.38-5.73-7.23-4.77-11.82,1.22-5.8,4.43-10.45,7.75-15.23,7.76-11.19,16-22.16,25.43-32,9.09-9.43,19.46-17.8,31.37-23.39a78.61,78.61,0,0,1,41.35-6.81c29.8,3,55.56,20.24,75.77,41.47,10.35,10.87,19.51,22.81,28.23,35s17.14,24.78,24.89,37.69c15.67,26.08,28.85,53.88,36.62,83.38q1.38,5.28,2.53,10.6c.14.63,1.1.37,1-.26Z" transform="translate(0 -0.06)" fill="#93abb2"/><path d="M2431.7,2353.29c-33.51-57.33-84.38-103.41-143.44-133.42S2162,2175.68,2096,2182c-40.07,3.83-81.7,14.38-112.84,41.16a.51.51,0,0,0,.22.84l134.79,44.49,66.91,22.08,33.46,11c9.58,3.16,19.11,7.11,29,3.13,8.18-3.27,15.75-8.75,23.28-13.28,8.61-5.18,17.18-10.42,25.67-15.8a565.07,565.07,0,0,0,46.66-32.57,311.11,311.11,0,0,0,42.18-39.43q4.62-5.29,8.94-10.83,1.57-2,3.09-4c2.21-3,2.57-4.67,4.39-.7,4.31,9.38,8.68,18.75,13.41,27.92,17,33.09,40.73,65.46,77,78.63,30.21,10.94,66.91,3.31,85-24.89a53,53,0,0,0,4.74-9.2,50.46,50.46,0,0,0,1.73-5.21,16.74,16.74,0,0,1,.66-2.69c1-1.93-.05-1.56,1.54-.5,2.79,1.86,5.09,4.77,7.86,6.79a65.24,65.24,0,0,0,11.2,6.53,71.44,71.44,0,0,0,43.34,5c7.26-1.44,14.85-4.09,21-8.26,1.19-.81-.05-.26-.49.2a25.68,25.68,0,0,0-2,2.71q-2.24,3.06-4.37,6.21-4.24,6.29-8,12.87a216.7,216.7,0,0,0-21.72,53.05,214.47,214.47,0,0,0-7.06,56.88c.19,16.2.26,35.09,17.13,42.82,16.11,7.38,36.85,5.14,53.91,3.64a357.46,357.46,0,0,0,62.37-11.59c21.22-5.78,42-13,62.55-20.85,10.3-3.92,20.54-8,30.76-12.09,4.95-2,9.89-4,14.83-6,5.72-2.3,12.33-5.13,18.52-2.9,8.11,2.93,12,12.8,18.05,18.44a53.45,53.45,0,0,0,17.46,10.7,61.37,61.37,0,0,0,41.73.52c13.21-4.68,27.61-15.89,29.54-30.7,1.89-14.51-10.92-23.6-22.81-28.39-18-7.26-38.26-10.84-57.29-14.51a605,605,0,0,0-61.14-8.57,614.25,614.25,0,0,0-246,28.36,602.05,602.05,0,0,0-194.71,108.21A609.94,609.94,0,0,0,2269,2639.81c-2.7,4.76-8.75,11.7-7.16,17.56.6,2.2,3.1,6.08,4.86,2.55.29-.58-.58-1.09-.86-.51-1.26,2.53-3.09-2.37-3.18-2.83-.44-2.33.15-3.36,1.09-5.2,1.19-2.35,2.51-4.64,3.79-6.94q4.21-7.59,8.66-15.06,8.49-14.25,17.75-28a604.32,604.32,0,0,1,40.92-54,615,615,0,0,1,97.3-92A601.1,601.1,0,0,1,2688.53,2343a615.39,615.39,0,0,1,151.15-8.19,603,603,0,0,1,76,10.13q18.4,3.68,36.55,8.49c10.06,2.67,20.54,5.44,29.06,11.7,11.19,8.21,13.23,21.2,5.45,32.8-5.92,8.82-15.21,15.12-25.21,18.41-18.33,6-40.14,2.81-55.11-9.69-6.84-5.72-10.8-15.84-19-19.78-9.51-4.59-21.38,2.67-30.06,6.16-24.22,9.76-48.53,19.4-73.37,27.49-25.41,8.28-51.46,15-78,18.16a266.85,266.85,0,0,1-38.85,2c-10.59-.29-22.74-1.73-31-9.09-9.82-8.78-9.27-24.38-9.46-36.53a212.5,212.5,0,0,1,2.53-36,214.05,214.05,0,0,1,42.05-98.08c.31-.4-.28-.94-.68-.68-26.58,17.53-64.44,12.75-85.82-10.85a.5.5,0,0,0-.83.22c-5.42,32.07-39.13,51.53-70,48.86-36.72-3.17-65.84-30.34-84.84-60-11.12-17.37-19.75-36.18-28.33-54.9-.17-.38-.67-.28-.87,0-19.05,26.78-43.52,49-70,68.27-12.84,9.37-26.14,18.1-39.62,26.52q-10.29,6.43-20.71,12.67c-6.84,4.11-13.64,8.84-20.92,12.14-10.23,4.64-19.94.77-29.9-2.52l-27.72-9.15-54.49-18-109.94-36.29-27.72-9.15-6.69-2.21c-1-.34-6.29-1.4-6.69-2.2-1.08-2.14,6.65-6.5,8.74-8,13.69-9.63,29.1-16.6,45-21.64,28.58-9,59-12.64,88.93-12.53,57.27.2,114.21,15.21,164.77,41.93s95,65.34,126.94,112.89c3.83,5.7,7.45,11.53,10.92,17.46a.5.5,0,0,0,.86-.5Z" transform="translate(0 -0.06)" fill="#93abb2"/><path d="M1446.37,2563a611.13,611.13,0,0,0-143,.75c-4.7.58-10.37,2.09-15.09,2.07-6.17,0-7.27-.84-8.85-6.89a216.83,216.83,0,0,0-9.09-27.19,238.17,238.17,0,0,0-24.7-45.33c-43.11-62.32-111.17-101.7-184-119-46.6-11-94.77-13.62-142.47-11a.5.5,0,0,0,0,1,1163.87,1163.87,0,0,0,222.14-5.64c73.39-9,145.82-24.93,220.16-22.87,73.19,2,145.17,16.75,217.14,28.88,71.64,12.07,143.27,19.14,216,17.84,82.67-1.48,164.91-11.46,246.47-24.52.61-.1.38-.93-.13-1A1811.73,1811.73,0,0,1,1610,2245.21c-15.66-5.94-50.18-23.24-54.41,5.3-3.08,20.74,14,35.06,33.34,35.68a73.87,73.87,0,0,0,19.85-2.45c3.86-.94,7.67-2.1,11.45-3.35,4.67-1.55,7.45-3.46,9.63,1.32,1.44,3.16,1.35,8.21,2.06,11.73q1.36,6.67,3.12,13.26a227.48,227.48,0,0,0,8,24.25c4.14,10.61,9,28,20.1,33.51,8.86,4.41,17.75-1.16,23.57-7.85,18.19-20.9,19.18-58.22,15.64-84.14a150.9,150.9,0,0,0-39.18-82.86.49.49,0,0,0-.7,0c-25.4,31.95-26.86,79.44-1.88,112.12,29.22,38.22,79.78,48.43,117.85,74.74,18.46,12.75,42,33.63,44.38,57.62,1,10.2-6.83,9.57-14.69,11.19-7.64,1.57-15.33,2.95-23.08,3.86-14,1.64-28.37,1.88-42.17-1.36-28.38-6.66-46.93-28.23-61.79-51.92-12.82-20.46-24.49-41.52-38.13-61.48-54.15-79.19-126.54-148.2-214.85-187.61-41.3-18.43-93.44-35-135.5-9.53-28.85,17.48-45.12,50.27-49.15,83a127.34,127.34,0,0,0,32.95,102.9c28.94,31.55,70.23,49.41,111.91,56.38a253.76,253.76,0,0,0,31,3.25c10.17.45,23,2,32.78-1.71,19.45-7.43-.29-34.23-6.66-44.54-26-42.24-64.76-76-104-105.7C1182.52,2110.62,976.13,2065,779.66,2079.41,564.44,2095.23,360,2181.3,177.9,2293.48q-34.58,21.32-68.31,43.95c-.53.35,0,1.22.5.86C261.45,2237,426.59,2152.46,604.22,2108.8c166.56-41,343-43.2,507.76,7.45,79.64,24.47,155.67,61.25,222.77,110.81,35.52,26.24,70.36,55.75,97,91.23a241.57,241.57,0,0,1,16.92,25.68c2.4,4.22,4.73,8.51,6.76,12.92,3.09,6.67,8.34,15.92-1.45,22.24-3.42,2.21-8.43,2.38-12.3,2.63-19.48,1.23-39.54-.58-58.67-4.22-72.25-13.75-142.49-65.7-139.51-145.69,1.21-32.42,14.14-66,39.79-86.83,36.89-30,86.86-20.44,127.63-4.39,77.35,30.43,143.75,84.26,196.37,148,26.6,32.21,48.22,67.07,69.8,102.69,9.55,15.76,20.18,31.52,34.92,42.91,14.42,11.16,31.84,16.36,49.93,17,21.19.79,42.21-3.86,62.72-8.6a.5.5,0,0,0,.37-.48c-3.83-35-32-59.22-60.76-75.75-33.52-19.24-73.32-30.67-99.33-60.87a89.23,89.23,0,0,1-21.45-58.91,93.87,93.87,0,0,1,4.62-28.61,88.81,88.81,0,0,1,5.89-13.93,41.62,41.62,0,0,1,4.26-7.16l1.58-2.29c2.8-3.14,5-3.16,6.53,0,6.69,4.22,12.77,16.61,16.67,23.49a150.34,150.34,0,0,1,13,30.49,152.44,152.44,0,0,1,6,58.68,131.25,131.25,0,0,1-7.48,33.76c-5.84,15.35-24.86,36-38.79,14.82-14.86-22.6-22.07-52.86-25.62-79.32,0-.29-.3-.61-.64-.48-17.46,6.4-39.62,14.49-57.57,5.27-11.63-6-18.64-21.57-14.56-34.24,6.9-21.43,33.31-8.17,47.26-2.84Q1630.17,2254,1656,2263a1808.85,1808.85,0,0,0,208.65,58.8q52.53,11.44,105.69,19.76,24.38,3.83,48.85,7c4.82.62,9.65,1.16,14.47,1.8,6.47.86,1.89.71-2.23,1.36q-14,2.21-28,4.27c-75.38,11.08-151.44,18.78-227.69,18.92-75.06.14-148.59-9.55-222.39-22.38-70.71-12.29-141.89-25.43-213.94-24.74-74.88.72-148.21,18.31-222.47,25.8q-55.35,5.58-111.08,5.82-28.29.12-56.57-1.15c-8.55-.38-18,.08-26.36-1.48,5,.92,15.09-.08,21.8-.17,69-1,139.79,10.5,201.18,43.37,51.44,27.54,95.88,70.84,120.12,124.35a224.45,224.45,0,0,1,14.45,43.37.51.51,0,0,0,.61.35,615.28,615.28,0,0,1,165.33-4c.63.07.63-.93,0-1Z" transform="translate(0 -0.06)" fill="#93abb2"/><path d="M2882.15,1048.62a211.81,211.81,0,0,0-134-4.07l.61.62a44.55,44.55,0,0,0-1.68-31.79c-.17-.38-.67-.26-.86,0-25.85,35-36.93,80.07-31.19,123.12a162.19,162.19,0,0,0,7.48,31.66c2.34,6.72,7,17,15.63,16.57,4.47-.21,7.7-3.51,10.19-6.9a138.64,138.64,0,0,0,9.25-14.91,181.2,181.2,0,0,0,21.21-108.65.5.5,0,0,0-1-.13,327.46,327.46,0,0,0-22.93,113.32,340.67,340.67,0,0,0,16.86,114.5,325.24,325.24,0,0,0,22.77,53c8.83,16.33,18.72,33.07,34.05,44.13,6.77,4.89,14.8,8.63,23.29,8.58,8.28-.06,15.85-4,21.44-9.92,6.22-6.63,10.18-15.09,13.7-23.37a199.5,199.5,0,0,0,9.61-28.38,208.55,208.55,0,0,0-4.79-119.77q-2.37-6.8-5.22-13.39c-.2-.46-1-.22-.94.25A654.11,654.11,0,0,0,2951,1448.6q9.84,20.14,21.06,39.6c6.86,11.89,13.94,23.77,22.46,34.57,11,13.94,40.53,43.87,56.58,20.36,5.64-8.25,7.16-19.09,7.32-28.87.24-14.83-.35-29.69-1.58-44.46a481.33,481.33,0,0,0-45.83-168.35q-9.45-19.64-20.67-38.33c-6.39-10.62-13.76-22.74-25.66-27.86a19.52,19.52,0,0,0-15.13-.46c-5.36,2.16-9.28,6.65-12.51,11.28a148.31,148.31,0,0,0-18.78,38.14,158.7,158.7,0,0,0-5.36,21c-.12.63.85.9,1,.27a156.12,156.12,0,0,1,13.56-41,141.41,141.41,0,0,1,10.24-17.63c3.74-5.41,8.49-10.66,15.19-12.09,13.46-2.88,24.77,10.35,31.34,20.27a372.94,372.94,0,0,1,20.47,35.83,479.67,479.67,0,0,1,49.4,161.44q2.52,20.93,3.18,42c.36,12,1.15,24.48-1.86,36.19-2.59,10.07-9,21-20.89,20.22-7.06-.49-13.63-4.79-19.2-8.85a96.05,96.05,0,0,1-14.68-13.46c-9-10-16.23-21.45-23.1-33q-10.87-18.24-20.53-37.17A653.19,653.19,0,0,1,2887.94,1214q-.83-10.47-1.32-21l-.93.25a206.8,206.8,0,0,1,13.07,118c-3.45,18.93-9.29,38.37-18.76,55.21-4.52,8-10.72,15.56-19.7,18.63-8.59,2.93-17.62,1-25.4-3.26-16.62-9.11-27.28-25.75-36.38-41.77a321.88,321.88,0,0,1-23.59-51.84,339.61,339.61,0,0,1-19.18-110.37,328.9,328.9,0,0,1,18.09-110.45c1.54-4.39,3.18-8.76,4.91-13.08l-1-.14a180.56,180.56,0,0,1-15.5,97.17q-3.47,7.44-7.6,14.55c-2.66,4.58-5.39,9.52-8.95,13.48-4,4.5-9.69,5.72-14.46,1.6-3.7-3.18-5.92-7.85-7.52-12.36a160.81,160.81,0,0,1-7.39-29.81,171.24,171.24,0,0,1,2.28-62.16,166.65,166.65,0,0,1,28.43-62.85h-.86a43.55,43.55,0,0,1,1.58,31,.51.51,0,0,0,.61.62,210.69,210.69,0,0,1,133.5,4.06c.61.22.87-.74.27-1Z" transform="translate(0 -0.06)" fill="#93abb2"/><path d="M2648.8,659.87a60.33,60.33,0,0,0,21.54,44.5.51.51,0,0,0,.84-.22,523.13,523.13,0,0,0,7.92-227.46c-1.73-9.26-3.69-18.48-5.95-27.62-1.56-6.31-3.8-12.91-8.12-17.9-3.88-4.48-9.86-6.88-15.68-5s-9.43,7.33-11.74,12.62c-2.84,6.48-3.78,13.39-4.51,20.37a222.86,222.86,0,0,0-1.17,25.57,229.57,229.57,0,0,0,23.64,98.56c7.51,15.19,16.61,30.29,28.18,42.76a74.07,74.07,0,0,0,20,15.58,89.06,89.06,0,0,0,24.2,8.11c16.67,3.25,34.07,3.67,51,3a293,293,0,0,0,143.36-44.45c7.2-4.53,14.21-9.38,21-14.54,6.29-4.8,12.74-9.72,17.86-15.79,4.84-5.76,8.25-12.82,7.5-20.51s-5-14.2-9.91-19.82c-5.79-6.68-12.63-12.48-19.17-18.41q-10.4-9.4-21-18.59-43.16-37.35-89.66-70.62-11.14-8-22.47-15.7c-.53-.37-1,.5-.51.86q46,31.41,89.08,66.87,21.41,17.64,42,36.22c6.39,5.76,13,11.42,18.87,17.69,5.3,5.64,10.32,12.31,11.59,20.14,2.79,17.1-14.59,29.24-26.46,38.14a284.27,284.27,0,0,1-41.88,26,292.87,292.87,0,0,1-94.19,29.23,283.85,283.85,0,0,1-49.28,2.2c-17.09-.74-34.87-2.65-50.38-10.41-15.27-7.64-26.19-21.06-35.39-35.07a223.22,223.22,0,0,1-22.71-45,227.53,227.53,0,0,1-13.36-98.67c.65-7.34,1.38-14.78,4.07-21.7,2.19-5.67,5.94-11.94,12.13-13.8,6.91-2.06,13,2.17,16.54,7.83,3.9,6.21,5.48,13.5,7.12,20.55a522.28,522.28,0,0,1,2.7,222.16q-2.72,13.21-6.13,26.29l.84-.22a59.4,59.4,0,0,1-21.25-43.8.5.5,0,0,0-1,0Z" transform="translate(0 -0.06)" fill="#93abb2"/><path d="M1988.84,304.93a467.08,467.08,0,0,1-75.53,29.21q-18.76,5.42-37.94,9.25c-6.38,1.27-12.79,2.42-19.23,3.41-7.25,1.11-15.62,2.55-22.33-1.4-5.08-3-7.92-8.51-10.33-13.68-2.73-5.85-5.25-11.8-7.79-17.73-4.92-11.52-9.7-23.1-14.57-34.63-9.71-23-19.83-45.82-32.32-67.42a271.69,271.69,0,0,0-19.36-29.41c-5.89-7.69-13.25-15.44-23.43-16.5-21.27-2.21-36.25,22.06-47.33,36.35Q1626.24,270,1573.79,337.72l-14.39,18.57-7.54,9.73c.08-.11-2.46,3.54-2.75,3.54-2.13,0-2.09-2.66-2.65-4.34L1531,318.75l-30.31-90.82c-.15-.43-.87-.52-1,0-5.51,29.72-11.08,59.49-19.21,88.64a413.62,413.62,0,0,1-13.58,40.87q-4.28,10.83-9.33,21.33-2.55,5.26-5.31,10.43c-1.74,3.24-3.34,7.52-5.78,10.23-2,2.21-1.08,2.19-2.59-.54a35.82,35.82,0,0,1-1.85-5q-2.05-5.5-4.12-11-4.51-12-9.18-23.95-8.55-21.92-17.55-43.64-18.45-44.49-38.79-88.17-23-49.41-48.45-97.66a.51.51,0,0,0-.92.12l-20.37,58.36c-.76,2.2-1.22,5.37-2.54,7.3-1.69,2.45-2.41.53-4.16-1.38q-4.57-5-9.21-9.91-9.29-9.85-18.87-19.43a719.73,719.73,0,0,0-81-70.3C1128.22,51,1061.3,18.33,989.22,5.68,949-1.39,907.66-2,867.35,5.09c-.63.11-.36,1.07.27,1C998-16.89,1125.79,41.11,1223.19,124.44a846.47,846.47,0,0,1,76,74.39.5.5,0,0,0,.83-.22l12.37-35.44,5.82-16.67,2.91-8.34a35.35,35.35,0,0,1,1.45-4.17c1-2,.31-2.53,2-1.21,1.52,1.17,3.06,5.85,4,7.58l3.93,7.59q4.15,8.09,8.26,16.19,8.19,16.22,16.12,32.57,31.22,64.38,58.25,130.69,15.35,37.62,29.3,75.77a.51.51,0,0,0,.91.12c21.23-34.76,33.79-73.72,42.91-113.2,2.37-10.26,4.52-20.58,6.56-30.92q1.44-7.26,2.81-14.53c.32-1.74,3.39-14,2.76-14.42,1,.7,2.14,6.34,2.52,7.48l2.46,7.39,6,18,10.92,32.73,25.38,76c.11.31.59.54.84.22q43.18-55.73,86.38-111.46L1678,204.86c11-14.19,25.52-38.63,46.25-38,12,.39,20.07,10.31,26.6,19.2a288.75,288.75,0,0,1,16.57,25.49c10.4,17.85,19.16,36.6,27.38,55.54s16,38.31,24.33,57.31c3.18,7.24,6.09,16,12.73,20.85,6,4.41,13.75,4,20.74,3,47.35-6.34,93.9-21.58,136.72-42.54.58-.28.08-1.14-.5-.86Z" transform="translate(0 -0.06)" fill="#93abb2"/><path d="M646.22,230.57A471.36,471.36,0,0,0,692,461.78a.49.49,0,0,0,.68.18c18.38-13.54,19.62-39.23,28-58.69,4.57-10.56,12-19.85,23.59-22.75,15.43-3.85,30.11,6,40.72,16.18,12.62,12.11,22.1,27.13,32.18,41.3l33.46,47c2.42,3.41,4.75,6.91,7.33,10.2,2.07,2.64,4.51,5.25,7.7,6.49,4.9,1.91,9.73-.08,12.9-4,3.64-4.51,5.44-10.49,6.32-16.12,1-6.8,1.75-13.68,2.34-20.54,2.46-28.41,1.84-57.44-4.5-85.33-6-26.53-17.66-52.07-36.73-71.79-9.69-10-23-21.69-38-20.08-13.71,1.48-22.36,14-28.29,25.16-16.45,31.08-28,65.17-35.18,99.55-2.88,13.9-5.56,30.15,2,43.06,7.32,12.43,22.14,16.7,35.53,18.67a193.85,193.85,0,0,0,120.69-21.79.51.51,0,0,0,0-.87c-36.12-27.1-74.31-51.69-115.1-71.19-39.93-19.08-82.42-33.19-126.37-39.07a311.67,311.67,0,0,0-116,6.09C508.41,352.6,473,369,443.36,393a214,214,0,0,0-38.95,41.09c-12.65,17.61-22.84,38.35-23.81,60.36a73.53,73.53,0,0,0,1,15.47c.07.41.58.43.84.22C398.88,496.77,402,470.4,389,453.59c-.38-.51-1.25,0-.86.5,12.71,16.49,9.73,42.22-6.42,55.36l.84.22c-3.83-22.72,4.06-45.34,15.78-64.58,10.11-16.61,23.17-31.53,37.65-44.48,28.38-25.37,63.06-43.08,99.55-53.51A306.84,306.84,0,0,1,649,336.92c43.92,4.24,86.72,17.08,126.89,35.1s77.86,41.14,113.48,66.89q6.52,4.72,13,9.57v-.87a193.78,193.78,0,0,1-118.62,21.88c-8.57-1.19-17.35-3-24.91-7.43a31.42,31.42,0,0,1-15.31-22c-1.74-9.42-.36-19.2,1.48-28.5q3.06-15.33,7.37-30.39A393,393,0,0,1,775,320.85c7.05-14.92,16.77-36.7,36.41-36.15,10.26.29,19.45,6.65,26.87,13.19a124.36,124.36,0,0,1,17,18.42,147.27,147.27,0,0,1,22,43.35c10.43,32.27,11.83,67,9,100.6-.7,8.25-1.18,16.88-3.15,24.94-1.61,6.58-5.55,16.5-13.79,16.26-5.13-.15-8.75-4.31-11.56-8.12-3.37-4.57-6.59-9.25-9.88-13.87l-19.42-27.28-19.71-27.71c-5.55-7.79-11-15.61-17.46-22.69-10.55-11.6-25.32-24.2-42.09-23.06-29.61,2-33,37.92-41.32,59.47-2.38,6.18-5.38,12.28-9.75,17.32A38.19,38.19,0,0,1,695,458.8a8.29,8.29,0,0,1-1.94,1.63c-.88.28-.22.26-.81-.43a10.2,10.2,0,0,1-1-2.13q-3.32-7-6.4-14.21a467.12,467.12,0,0,1-21-59.49,472.32,472.32,0,0,1-17.39-123.4q-.12-15.1.76-30.2c0-.64-1-.64-1,0Z" transform="translate(0 -0.06)" fill="#93abb2"/><path d="M2083.55,289.43,2041,265.52c-.34-.19-.91.14-.73.57a522.76,522.76,0,0,0,66.26,116.38,519.75,519.75,0,0,0,43,50c15,15.41,31.11,30,49.21,41.74,17.52,11.36,37.1,19.92,57.94,22.57,22.65,2.89,45.57-1.41,66.73-9.56,20.43-7.88,39.54-19.14,57.07-32.19a268.6,268.6,0,0,0,43.91-40.93c25.46-29.84,44.24-66,50-105q1.05-7,1.52-14.17c0-.56-.85-.67-1-.13a100.23,100.23,0,0,0-.27,46.75.5.5,0,0,0,.83.22,28.22,28.22,0,0,0,9.25-17.3h-1a377.19,377.19,0,0,1,20.11,69c.12.63,1.09.36,1-.27a378.11,378.11,0,0,0-20.11-69c-.16-.39-.89-.55-1,0a27.49,27.49,0,0,1-9,16.86l.83.22a99.22,99.22,0,0,1,.27-46.23l-1-.13c-2.68,39.26-18.74,76.37-42.39,107.51a263.87,263.87,0,0,1-94.36,77.32c-20.59,9.93-43.1,16.79-66.11,17-21.65.16-42.55-6.19-61.43-16.54-18.64-10.21-35.23-23.84-50.5-38.53a502.13,502.13,0,0,1-44-48.52A520.93,520.93,0,0,1,2047.74,281c-2.26-5-4.42-10.11-6.52-15.21l-.73.57,42.55,23.9c.56.32,1.07-.55.51-.86Z" transform="translate(0 -0.06)" fill="#93abb2"/><path d="M2463.6,249.49q3.12,39.81,7.22,79.54,4.11,39.92,9.23,79.72,5.05,39.28,11.06,78.43,6.06,39.46,13.1,78.78,7.08,39.49,15.13,78.82,1,4.86,2,9.72c.13.63,1.09.37,1-.26q-8.13-39.09-15.3-78.38-7.12-39.09-13.29-78.35-6.24-39.76-11.49-79.7-5.17-39.39-9.38-78.9-4.21-39.72-7.46-79.52-.41-5-.79-9.9c0-.64-1-.64-1,0Z" transform="translate(0 -0.06)" fill="#93abb2"/><path d="M3208.93,2014.5c-31-.62-62.07-1.15-93.1-.42-30.71.73-61.43,2.67-91.85,7.07s-60.32,11.23-89.12,21.73A358.18,358.18,0,0,0,2854,2085c-25.23,17.44-48.5,37.57-70.61,58.79q-4.12,3.95-8.2,8a.5.5,0,0,0,.61.78,1178.11,1178.11,0,0,0,116.34-71.93q15.79-11.09,31.21-22.68c.36-.27.29-1-.25-.93-32.5,1.18-63.81,16.62-85.3,40.91-11.13,12.6-21,28.53-23.91,45.31a39.59,39.59,0,0,0,3,24.14,43.46,43.46,0,0,0,13,15.35c12,9.16,27.15,13.82,41.76,16.86a570.49,570.49,0,0,0,62.4,9.21c42.75,4.06,85.82,3.86,128.64,1.11s85.48-8,127.95-14.2q7.89-1.15,15.76-2.34c.64-.1.37-1.06-.26-1-41.51,6.26-83.16,11.82-125,15.18-41.57,3.34-83.38,4.52-125,1.94a626.11,626.11,0,0,1-62.46-6.91c-16.66-2.72-33.75-5.54-49.24-12.56-13-5.9-25.41-15.39-29.1-29.86-4.59-18,5.24-37.3,15.37-51.65a121.17,121.17,0,0,1,80.16-49.42,111.84,111.84,0,0,1,12.27-1.1l-.25-.93a1180.14,1180.14,0,0,1-113.92,75.71q-16.67,9.72-33.64,18.9l.61.79c22-21.6,45-42.28,69.92-60.44s51.59-33.4,80.19-44.72c28-11.08,57.35-18.55,87.05-23.47,30.43-5,61.25-7.43,92.06-8.46s61.62-.69,92.42-.11l11.42.22a.5.5,0,0,0,0-1Z" transform="translate(0 -0.06)" fill="#93abb2"/><path d="M368.73,1192.17l179.82,30.52,179.83,30.51,90.35,15.33,45.17,7.66c6.69,1.14,18.85,1.09,19.45,10.13.4,6.15-3.18,12.64-6.16,17.79-11.89,20.57-33,33.88-53.9,44-25.12,12.14-51.71,21.63-78.56,29.14a514.55,514.55,0,0,1-84.43,16.15q-10.11,1.07-20.26,1.73c-3.52.23-7,.42-10.55.58-2.49.11-8.87,1.51-10.35-.92-1-1.67-.77-5.39-1-7.31-.19-1.66-.36-3.32-.5-5q-.46-5.4-.61-10.82a184.39,184.39,0,0,1,.7-21.67,187.15,187.15,0,0,1,3.58-22.93c.12-.52-.64-.91-.91-.38a626.64,626.64,0,0,0-29.18,67.58q-6.42,17.67-11.75,35.69c-3.45,11.64-7.2,23.54-9.21,35.53-1.45,8.6-1,18,5.73,24.3,5.45,5.09,13.21,6.65,20.42,7,11.18.57,22.5-1.39,33.59-2.55l40-4.16,80-8.32c13-1.35,25.94-2.81,38.93-4,5.63-.54,13.74-1,16.16,5.46.8,2.13,1.19,8.57-2.91,6.76-1.18-.52-2.71-2.77-3.62-3.7l-3.61-3.69c-35.75-36.56-71.24-73.4-107.82-109.13-68.41-66.83-142.13-129.94-228.21-172.94-41.4-20.67-85.39-36.5-131-44.9-49.08-9-99.54-9.53-149-2.9-45.71,6.13-93.46,16.78-133.37,40.85-16.61,10-36.83,23.64-43,43.07-3.61,11.29-2.35,23.94-2.29,35.61l.19,40.06.18,38.31a.5.5,0,0,0,1,0l-.26-55.73L1.23,1267c0-8.74-.58-17.76,1.29-26.35C6.1,1224.16,20,1212.46,33,1203a208.8,208.8,0,0,1,42.38-23.36c30.63-12.76,63.62-20.11,96.35-25a490.66,490.66,0,0,1,107.83-4.29c67.16,4.9,131.68,25.86,191,57.21s113.21,72.4,163.2,117.15c52.18,46.69,100.63,97.37,149.55,147.4l19.28,19.71a.53.53,0,0,0,.61.08c6.47-3.38,2.84-12.24-2.66-14.44s-12-.77-17.59-.19l-22.6,2.35-92.14,9.59-46.07,4.8c-11.75,1.22-24.5,3.55-36.1.1-6.22-1.85-11.48-5.71-14-11.85-2.77-6.89-1.48-14.59.13-21.6,3.21-14,7.21-27.78,11.53-41.44a625.25,625.25,0,0,1,37.48-92.1l-.91-.38a188,188,0,0,0-1.93,69.88.5.5,0,0,0,.48.37,517,517,0,0,0,158.64-29.14c22.73-8,45.87-17.06,66.33-30,16.66-10.52,34.44-26,39.75-45.85.92-3.44,1.27-7.48-.83-10.58-2.73-4-8.18-4.47-12.56-5.22l-43.44-7.37L739.07,1254l-173.75-29.48-174.61-29.63L369,1191.21c-.63-.11-.9.86-.26,1Z" transform="translate(0 -0.06)" fill="#93abb2"/><path d="M3110.45,756.06a156,156,0,0,0-60.34,8.33,154,154,0,0,0-16,6.59c-.49.23-.2.89.25.93a33.48,33.48,0,0,0,30.29-15.21c.22-.34-.15-.9-.57-.73a90.62,90.62,0,0,0-37.08,28.1,97.07,97.07,0,0,0-19.31,42.17,87.1,87.1,0,0,0-.91,26.28.51.51,0,0,0,.85.36A55.19,55.19,0,0,0,3026,813.07a53,53,0,0,0-.92-11.24c-.69-3.56-1.62-7.42-3.87-10.35-2.47-3.22-6.11-3.89-10-3.37a89.08,89.08,0,0,0-10.82,2.33,125.52,125.52,0,0,0-39.51,18.61,133,133,0,0,0-31.07,30.58,124.34,124.34,0,0,0-19.18,39.23q-.74,2.64-1.35,5.31l1,.13a26.46,26.46,0,0,0-10.63-19.13c-.52-.39-1,.48-.51.86a25.37,25.37,0,0,1,10.14,18.27c0,.53.84.72,1,.14a121.76,121.76,0,0,1,16.8-39.05,131.77,131.77,0,0,1,28.59-31.19,126.49,126.49,0,0,1,37.47-20.5c3.31-1.12,6.67-2.11,10.06-2.94q2.6-.63,5.2-1.14a23.65,23.65,0,0,1,6.26-.67c4.37.32,6.76,3.87,8.06,7.7a45.28,45.28,0,0,1,2.12,10.77,54.58,54.58,0,0,1-14.05,41,50.05,50.05,0,0,1-3.85,3.72l.86.35a89.66,89.66,0,0,1,6.77-45.51,96.27,96.27,0,0,1,27.28-36.68,86,86,0,0,1,22.52-13.4l-.57-.73a32.46,32.46,0,0,1-29.42,14.71l.25.93a154.55,154.55,0,0,1,75.86-14.78c.65,0,.64-1,0-1Z" transform="translate(0 -0.06)" fill="#93abb2"/><path d="M3049.12,219c-48.28-7.81-96.62-15.58-145.31-20.47-48.35-4.86-97.13-6.86-145.63-3-21.7,1.73-44,3.87-64.93,10.13a106,106,0,0,0-27.18,12.11c-5.66,3.64-16.29,10-13.07,18.21,2.54,6.48,11.32,9.14,17.52,10a141.27,141.27,0,0,0,15.12.81q8,.22,16.07.14a413.25,413.25,0,0,0,65.49-6,415.62,415.62,0,0,0,123.37-41.85q7.11-3.76,14.06-7.79c.4-.23.26-1-.25-.93L2772,206.82l-37.61,4.68c-.63.08-.64,1.08,0,1L2866.77,196l37.61-4.68-.25-.93a413.65,413.65,0,0,1-119.36,46.07,414.26,414.26,0,0,1-63.5,8.72q-16,.95-32.13.63c-5.24-.11-10.49-.3-15.72-.62a33.68,33.68,0,0,1-11.84-2.84c-3.25-1.47-6.84-3.83-7.87-7.46-1.41-4.93,2.69-8.72,6.15-11.5a92.21,92.21,0,0,1,26.55-14.49c19.94-7.22,41.51-9.62,62.5-11.62,46.87-4.47,94.11-3.29,141,.86,47.62,4.21,94.91,11.45,142.09,19q8.46,1.35,16.91,2.73c.63.1.9-.86.26-1Z" transform="translate(0 -0.06)" fill="#93abb2"/></svg>