<svg xmlns="http://www.w3.org/2000/svg" width="738.5" height="609.15" viewBox="0 0 738.5 609.15"><path d="M419.93.14c-36,34-72.44,68.5-100.52,109.63-25.37,37.15-45.54,82-46,127.69-.32,32.74,15.85,76.64,55.75,73.07,21.72-1.95,40.37-16.71,55.54-31.26a229.33,229.33,0,0,0,38.68-49.13c21.39-36.38,33.08-78.54,32.7-120.79-.05-5.36-.32-10.72-.75-16.07-.05-.63-1-.65-1,0q3,63.47,11.87,126.47,4.41,31.42,10.28,62.62c3.67,19.58,7.52,39.2,12.89,58.4,5.19,18.58,12,36.84,21.75,53.52,7.12,12.11,18.61,26.81,34.39,25.5,13.44-1.12,21.69-13.43,26.17-24.93,6.66-17.07,8.51-36.69,9.17-54.86,1.68-46.71-9-92.81-20-137.88a.51.51,0,0,0-1,.13,328,328,0,0,0,41.58,162.09A318.32,318.32,0,0,0,624.58,400c6.61,8.83,15,20.91,27.14,21.66,10.54.66,17-8.35,20.15-17.28,4.34-12.43,5-26.66,5.74-39.69,3.52-61.26-11.51-122.07-33.55-178.8-5.43-14-11.33-27.8-17.56-41.45-6-13.16-12-26.45-19.37-38.93-6.64-11.29-14.75-22.42-25.43-30.21-4.29-3.13-9.28-4.9-14.39-2.67-4.78,2.09-8.2,6.58-10.9,10.87-8.25,13.08-15,27.33-21.56,41.32-6.42,13.75-12.33,27.73-17.93,41.83-11.85,29.82-22.46,60.14-33.35,90.32C460.93,319.68,438,382.3,415.67,445.13c-10.52,29.6-20.36,59.73-24.34,91-1.67,13.15-2.85,26.86-.83,40,1.56,10.17,5.35,20.85,13.8,27.32,10,7.67,23.11,6.53,34.39,2.54,12.57-4.45,24.35-11.81,35.21-19.45,21.68-15.25,40.39-34.38,56.63-55.26,16.79-21.58,31-45.06,43.77-69.23a623.78,623.78,0,0,0,36.08-82.56,623.32,623.32,0,0,0,24-87.41c5.87-29.79,10.62-60.56,9.24-91a164.84,164.84,0,0,0-7.58-43.5.5.5,0,0,0-.73-.29L387.19,267.26,139.11,377.2.24,438.74l.51.86a1382.73,1382.73,0,0,1,168.12-92.53c57.72-26.71,118.19-50.4,181.7-58.3,31.05-3.86,62.69-3.71,93.5,2.05a280.81,280.81,0,0,1,77.45,27c49.81,25.83,92,64.68,125.37,109.51C682.7,475.45,708.85,530,730,586q3.87,10.26,7.53,20.59c.22.61,1.18.35,1-.26C718.33,549.63,693.86,494,660,444.12c-31.49-46.46-71.35-87.57-119.53-116.77a295.5,295.5,0,0,0-75.33-32.72c-29.22-8-59.65-10.64-89.85-9.06-63.23,3.32-124.26,24.2-181.85,49.34A1359.76,1359.76,0,0,0,20.75,425.76q-10.3,6.4-20.51,13a.5.5,0,0,0,.51.86L238,334.44,474,229.89l118.64-52.58,29.66-13.15,6.74-3a27.48,27.48,0,0,1,4.05-1.8c2.2-.54,1.72-.87,2.79,1.11s1.32,4.51,1.84,6.54q1,3.94,1.8,7.94c4,20.07,3.91,40.73,2.12,61-3.48,39.47-11.94,78.77-23.45,116.65A624.21,624.21,0,0,1,573.74,461c-16.58,31.59-35.79,62.17-59.87,88.62a248.74,248.74,0,0,1-39.05,35.09A206,206,0,0,1,453,598.37c-8.63,4.66-17.93,8.92-27.83,9.73-9.17.75-18.14-2.16-24.27-9.17-5.11-5.85-7.73-13.49-9.1-21-3.34-18.44-.52-38.4,2.87-56.62,7.44-40.09,22.82-78.36,36.62-116.57l44-121.87c14.13-39.14,27.69-78.56,43.12-117.21,7.62-19.11,15.82-38,25.11-56.37,4.38-8.67,8.77-17.55,14-25.72,2.23-3.47,4.89-6.91,8.44-9.1,5.86-3.62,11.59-1.17,16.53,2.73,14.25,11.26,23.6,27.45,31.58,43.46,8.83,17.71,17,35.81,24.45,54.13,15,36.76,27.19,74.9,33.65,114.14a355,355,0,0,1,4.9,59.75Q677,363.38,675.54,378c-.89,8.72-1.73,17.74-4.64,26.07-2.54,7.29-7.26,14.92-15.48,16.36-9.92,1.74-18.26-6.35-24-13.33-11.85-14.32-22-30.29-30.89-46.6A328.48,328.48,0,0,1,565,257a322.19,322.19,0,0,1-4.17-54.7l-1,.14c9.46,38.76,18.63,78,20,118.08a240.63,240.63,0,0,1-4.76,58.79c-2.94,13.65-8.18,30.71-21.78,37.37-17.37,8.51-32.58-8.24-40.65-21.72-9.67-16.14-16.42-33.83-21.61-51.86-5.09-17.7-8.77-35.79-12.26-53.86q-5.74-29.73-10.18-59.71-10-67.72-13.28-136.2h-1a234.59,234.59,0,0,1-57.25,171.59C383,281,366.1,297.12,346,305.28c-19,7.72-40.11,5-53.92-10.92-11.67-13.46-16.46-32.14-17.43-49.57-1.17-21.21,3.29-43,9.79-63.08A273.1,273.1,0,0,1,314,119.87c25.54-40.3,59.56-74.29,94-107q6.34-6,12.72-12c.47-.45-.24-1.15-.71-.71Z" fill="#4054a5"/></svg>