<svg xmlns="http://www.w3.org/2000/svg" width="728.02" height="698.15" viewBox="0 0 728.02 698.15"><path d="M441.09,226.7a77.73,77.73,0,0,0-1.19,41.56.5.5,0,0,0,.91.12,71,71,0,0,0,11.41-40.26.5.5,0,0,0-1,0q-1.11,13.19-1.78,26.39c-.43,8.76-.75,17.53-.87,26.3-.06,4.42.08,9,1.77,13.1a.51.51,0,0,0,.92.12c6.57-10.59,9.57-22.84,11.65-35,.6-3.47,1.12-7,1.64-10.46l-1-.13a271.07,271.07,0,0,0,.36,37.05,183.57,183.57,0,0,0,2.43,18.24c.39,2.06.94,4.39,2.57,5.85,2,1.79,4.75,1.34,7.15.75A69.33,69.33,0,0,0,492,303.7q7.29-3.9,14.39-8.17a200.08,200.08,0,0,0,26.81-19A133.6,133.6,0,0,0,545,265.23a64,64,0,0,0,9.5-12.77,34.92,34.92,0,0,0,3-7.22c.63-2.29,1.47-5.27-.5-7.13-1.81-1.7-4.64-2.42-7-2.73a30.38,30.38,0,0,0-8.08.25,135.07,135.07,0,0,0-16.88,3.69c-5.61,1.55-11.14,3.39-16.58,5.45a249.55,249.55,0,0,0-31,14.38c-9.06,5-17.87,10.59-25.4,17.71A68.92,68.92,0,0,0,442,288.54c-2.81,4.19-5.41,9.22-4.05,14.4a9.21,9.21,0,0,0,3.57,5.28c.53.36,1-.5.51-.87a8.46,8.46,0,0,1-3.34-5.76,13.52,13.52,0,0,1,1.23-7.4,39,39,0,0,1,4-6.66,69.35,69.35,0,0,1,4.71-5.83c6.75-7.45,15-13.37,23.6-18.48a242,242,0,0,1,28.85-14.45,186,186,0,0,1,32-10.46c2.69-.61,5.39-1.16,8.11-1.59a32.44,32.44,0,0,1,8-.41,16.79,16.79,0,0,1,3.77.81,8.36,8.36,0,0,1,3.31,1.83c1,1.07.87,2.55.61,3.89a30,30,0,0,1-1,3.72,44,44,0,0,1-7.7,13.31,112.21,112.21,0,0,1-10.7,11.43,174.05,174.05,0,0,1-25.21,19.35c-4.46,2.86-9,5.57-13.6,8.18a160.55,160.55,0,0,1-14.65,7.66,53.24,53.24,0,0,1-7.84,2.76c-2.44.63-5.44,1.3-7.21-1-1.4-1.82-1.67-4.37-2.05-6.57q-.78-4.43-1.32-8.9a238.76,238.76,0,0,1-1.45-35.67c.07-2.88.19-5.77.34-8.65,0-.55-.9-.7-1-.13-1.81,12.15-3.67,24.51-8.43,35.92a64.61,64.61,0,0,1-4.77,9.29l.92.12c-1.52-3.71-1.76-7.73-1.75-11.7,0-4.27.15-8.53.29-12.8q.4-13.15,1.27-26.29.48-7.36,1.1-14.73h-1A69.83,69.83,0,0,1,440,267.88l.91.12a76.92,76.92,0,0,1-1-32.18,75.3,75.3,0,0,1,2.17-8.86c.19-.61-.77-.88-1-.26Z" transform="translate(0 -0.51)" fill="#4054a5"/><path d="M324.07,220.39a2.2,2.2,0,0,0-2.93-1.24c-1.53.57-2.13,2.38-2.71,3.74-1.6,3.74-3.15,7.49-4.68,11.26-3.1,7.64-6.1,15.33-9.15,23s-6.21,15.43-9.56,23-7,15.08-10.84,22.43-8,14.73-12.2,22c-.52.92-1,1.84-1.57,2.75a.5.5,0,0,0,.87.51c6.13-10.15,10.65-21.16,14.48-32.36s7.07-22.85,10.7-34.24c2-6.38,4.22-12.72,6.72-18.94l-1-.26a230.32,230.32,0,0,1-26.66,69.85q-5.29,9.09-11.42,17.68l.91.38q4.05-18.36,9-36.5c3.17-11.51,6.4-23.1,10.8-34.22a115.43,115.43,0,0,1,8.63-17.62l-.93-.25a167.74,167.74,0,0,1-.66,36.87,213.52,213.52,0,0,1-7.94,36.3c-2,6.62-4.35,13.16-6.9,19.6h1a325.84,325.84,0,0,1-8.36-37.31c-1-6.23-1.86-12.49-2.48-18.77a138.75,138.75,0,0,1-.73-18.23,73.77,73.77,0,0,1,3.35-20.28l-.91.12a91.4,91.4,0,0,1,7.9,20.62.5.5,0,0,0,1-.26,93,93,0,0,0-8-20.87.5.5,0,0,0-.91.12c-3.8,11.71-3.93,24.2-2.88,36.35a301,301,0,0,0,5.82,37.76q2.28,10.59,5.28,21a.5.5,0,0,0,1,0,249.89,249.89,0,0,0,11.22-35.62,192.35,192.35,0,0,0,5-36.53,160.08,160.08,0,0,0-.63-20.89.5.5,0,0,0-.93-.25c-6.08,10-10.21,21-13.7,32.07C275.26,285,272,297,269,309q-2.6,10.33-4.89,20.75a.5.5,0,0,0,.91.38,230.37,230.37,0,0,0,19.29-32.37A232.16,232.16,0,0,0,298,262.86q3.06-10.14,5.18-20.52a.5.5,0,0,0-1-.26c-4.43,11-7.84,22.43-11.29,33.8s-6.9,22.68-11.49,33.6a138.69,138.69,0,0,1-9,17.89l.87.51c4-7.05,8-14.09,11.88-21.23S290.61,292.37,294,285s6.37-14.6,9.35-22,5.88-14.81,8.83-22.21q2.21-5.55,4.48-11.08c.78-1.87,1.56-3.74,2.36-5.61.35-.83.68-1.68,1.09-2.49a2.81,2.81,0,0,1,1.55-1.62,1.18,1.18,0,0,1,1.49.6c.19.62,1.16.36,1-.26Z" transform="translate(0 -0.51)" fill="#4054a5"/><path d="M391.79,404.36A43.92,43.92,0,0,0,371,409.83a40.93,40.93,0,0,0-4.64,3,16.18,16.18,0,0,0-3.7,3.4,4.78,4.78,0,0,0-.82,4.44,6.56,6.56,0,0,0,3,3.19,29.55,29.55,0,0,0,10.6,3.19,77.89,77.89,0,0,0,11.83.59,241.45,241.45,0,0,0,25.48-1.91q12.71-1.49,25.38-3.3l3.2-.47c.59-.08.39-.93-.13-1q-8-.69-16.12-.62a81,81,0,0,0-14.92,1.13,25.21,25.21,0,0,0-7.43,2.66.5.5,0,0,0,0,.86c2.68,2,6.15,2.24,9.37,1.89a56.25,56.25,0,0,0,10.71-2.41,111,111,0,0,0,20.82-9.4c3.76-2.11,7.46-4.34,11.15-6.58.47-.29.17-1.1-.39-.92-8.41,2.84-16.82,5.72-24.95,9.29a122.65,122.65,0,0,0-11.87,5.92,61.8,61.8,0,0,0-9.7,6.63,29.5,29.5,0,0,0-7.82,10c-.16.36.12.9.57.74a43.21,43.21,0,0,0,10.65-6c3.38-2.46,6.67-5.05,10-7.64,6.61-5.19,13.19-10.46,20.15-15.19A125,125,0,0,1,453.55,404l-.6-.78c-5.55,6.5-12.31,11.78-19.23,16.73s-14.08,9.61-20.65,15a81.19,81.19,0,0,0-10.3,10,.51.51,0,0,0,.61.79q13.29-5.67,26.47-11.6T456,422.08q7.35-3.49,14.66-7.08c.55-.26.13-1-.38-.91l-27.6,4.36q-13.8,2.16-27.6,4.3l-15.54,2.38.57.73c5-6.8,11.56-12.32,18.26-17.44,1.9-1.45,3.82-2.87,5.75-4.3.51-.38,0-1.25-.51-.86-6.89,5.1-13.84,10.24-19.71,16.52a63.75,63.75,0,0,0-4.66,5.58c-.29.39.19.79.57.73q13.8-2.1,27.61-4.25t27.6-4.33l15.52-2.46-.38-.91q-13,6.36-26.08,12.44t-26.22,11.86q-7.45,3.27-14.94,6.47l.6.78c5.52-6.52,12.26-11.82,19.18-16.77s14.08-9.61,20.66-15a81.22,81.22,0,0,0,10.33-10,.5.5,0,0,0-.6-.79,150.4,150.4,0,0,0-20.89,13.63c-6.66,5-13.1,10.35-19.79,15.35-3.72,2.79-7.59,5.48-12,7l.57.74c3.17-7,9.51-11.78,15.95-15.57a147.5,147.5,0,0,1,23.8-10.92c4.63-1.72,9.31-3.3,14-4.88l-.38-.92c-12.56,7.64-25.65,15.49-40.35,18-3.59.62-7.63.78-10.7-1.49V425c4.14-2.32,8.91-3,13.58-3.34a152,152,0,0,1,15.54-.22q4.42.15,8.85.53l-.14-1q-12.22,1.79-24.49,3.27c-8.05,1-16.11,1.89-24.22,2.23-7.51.32-15.41.52-22.66-1.73-2.55-.79-7.26-2.26-7.13-5.66.06-1.72,1.43-3.11,2.66-4.16a35.69,35.69,0,0,1,4.15-3,43,43,0,0,1,22.41-6.57.5.5,0,0,0,0-1Z" transform="translate(0 -0.51)" fill="#4054a5"/><path d="M112.37,154.78q-7.11,11.85-15,23.22l.86.51,11-24.09,3.17-6.89c.26-.58-.55-1.08-.86-.51-6.25,11.67-12.54,23.45-16.52,36.13a93.22,93.22,0,0,0-2.71,10.77c-.08.45.48.9.84.49a271.88,271.88,0,0,0,20.4-27q2.64-4,5.13-8.05l-.94-.25c-.8,6.77-3.34,13.2-6.39,19.26a146.58,146.58,0,0,1-9.88,16.75,148.1,148.1,0,0,1-11.88,15.25c-2.1,2.37-4.29,4.68-6.54,6.91s-4.53,4.25-6.75,6.42c-4.3,4.19-8.89,9.61-7.69,16.06.1.5.84.44,1,0A48.79,48.79,0,0,1,77.13,225a126.39,126.39,0,0,1,10.81-12.86,162.48,162.48,0,0,1,25.34-21.86c9.07-6.3,19.12-12.53,30.27-14.07a26,26,0,0,1,8.53,0,6,6,0,0,1,4.79,4.58c1.31,5.28-3,9.81-6.46,13.15a58.34,58.34,0,0,1-27.16,14.7c-1.26.29-2.52.54-3.79.74-.64.11-.37,1.07.26,1a59.5,59.5,0,0,0,29-13.51,47.89,47.89,0,0,0,5.79-5.78,14.38,14.38,0,0,0,3.5-7,8.52,8.52,0,0,0-1.51-6.38c-1.61-2.09-4.16-2.62-6.67-2.74-11.76-.55-22.73,5.15-32.32,11.34a162.79,162.79,0,0,0-27.07,21.88,150.24,150.24,0,0,0-11.54,12.9,60.49,60.49,0,0,0-8.82,14.37,41.08,41.08,0,0,0-1.41,4h1c-1.09-5.83,3.15-10.85,7-14.67,2.14-2.12,4.41-4.11,6.56-6.23q3.48-3.41,6.73-7a151.56,151.56,0,0,0,21.68-31.38c3.42-6.62,6.31-13.62,7.19-21.07.07-.53-.69-.65-.93-.26a270.5,270.5,0,0,1-19.28,27.52q-3,3.72-6.09,7.34l.84.49c2.43-13,7.88-25.1,13.9-36.77,1.7-3.32,3.46-6.6,5.22-9.89l-.86-.51L100.53,171.1,97.37,178a.5.5,0,0,0,.86.51q7.89-11.37,15-23.23a.5.5,0,0,0-.87-.5Z" transform="translate(0 -0.51)" fill="#4054a5"/><path d="M281.82,149l-15.74,1.36.44.75a69.21,69.21,0,0,1,25.53-22.45,67.9,67.9,0,0,1,16.22-5.89c2.89-.65,6.6-1.52,8.44,1.51a11.88,11.88,0,0,1,1.32,4.06,39.3,39.3,0,0,1,.58,4.95,41.16,41.16,0,0,1-4.51,21.12c-.25.48.41,1.07.78.61a166,166,0,0,1,26.71-26.15l-.84-.48c-3.37,12-13.16,20.49-23.08,27.27-2.89,2-5.86,3.86-8.84,5.71a.51.51,0,0,0,.39.92,146.35,146.35,0,0,0,25.1-8.43c8.22-3.43,16.38-7,24.68-10.24a532.48,532.48,0,0,1,50.57-16.88q14.51-4,29.22-7.27c.63-.14.36-1.07-.27-1l-3.94.71c-.63.11-.37,1.08.26,1l4-.71-.27-1a532.59,532.59,0,0,0-51.76,14.1q-12.6,4.13-25,8.87c-8.26,3.17-16.41,6.62-24.56,10.08-9.18,3.9-18.49,7.64-28.27,9.76l.38.92c10.46-6.5,21.53-13.58,28.21-24.23a35.6,35.6,0,0,0,4.18-9.36c.15-.52-.47-.77-.84-.48a165.47,165.47,0,0,0-26.7,26.14l.78.61a42.38,42.38,0,0,0,4.72-19.53,32.62,32.62,0,0,0-1.24-9.63,7.12,7.12,0,0,0-2.06-3.4,5.84,5.84,0,0,0-3.95-1.24,23.37,23.37,0,0,0-4.69.74q-2.22.51-4.41,1.17a70.29,70.29,0,0,0-37.68,27.58.5.5,0,0,0,.43.75L281.82,150c.64-.06.65-1.06,0-1Z" transform="translate(0 -0.51)" fill="#4054a5"/><path d="M256.13,444.66a168.2,168.2,0,0,0-3.51-22.54q-1.27-5.6-2.92-11.09c-1-3.26-1.88-6.8-3.93-9.58-1.76-2.38-4.63-4.25-7.7-3.86s-5.06,2.89-6.63,5.28a145.34,145.34,0,0,0-10.34,18.94,160.12,160.12,0,0,0-8.47,22.84.5.5,0,0,0,1,.26c4.29-13.75,6.88-27.94,9.38-42.1s4.89-28.39,8.84-42.24A100,100,0,0,1,235.29,350a24.26,24.26,0,0,1,5.79-8.83l-.83-.22q6,19,10.06,38.48c2.67,12.71,4.4,25.6,7,38.32A153.18,153.18,0,0,0,263,438.58a.5.5,0,0,0,1-.14,141.29,141.29,0,0,0-2.15-25c-1.42-8.32-3.4-16.54-5.58-24.69-1.22-4.59-2.51-9.16-3.8-13.73l-.91.39c5.32,8.43,10.76,16.8,16.55,24.93q4.28,6,8.82,11.79A139.87,139.87,0,0,0,286,422.84a37.3,37.3,0,0,0,11.77,8.62c.58.25,1.09-.59.5-.87-7.44-3.44-15.06-6.52-22.79-9.27s-15.62-5.21-23.56-7.41-16-4.16-24-5.94-16.2-3.41-24.34-4.94-16.28-3-24.43-4.38l-3.07-.54.22.84a17,17,0,0,1,8.88-4.38c.63-.1.36-1.07-.27-1a17.94,17.94,0,0,0-9.31,4.63.49.49,0,0,0,.22.83c8.11,1.42,16.22,2.84,24.32,4.33s16.27,3.1,24.36,4.84,16,3.63,24,5.76,15.77,4.48,23.53,7.14,15.46,5.66,23,9c.94.42,1.89.85,2.83,1.29l.5-.87c-8.2-3.53-14-10.86-19.47-17.66-6.18-7.72-11.9-15.8-17.38-24-3.06-4.61-6-9.27-9-14a.51.51,0,0,0-.92.39c2.28,8.05,4.55,16.11,6.47,24.26a192,192,0,0,1,4.36,24.72,126,126,0,0,1,.67,14.14l1-.13c-4.33-12.14-6.53-24.88-8.67-37.54-2.19-13-4.68-25.88-7.94-38.64q-2.76-10.81-6.11-21.46a.5.5,0,0,0-.83-.22c-4.75,4.34-6.78,10.73-8.6,16.7-2.11,7-3.8,14-5.28,21.14-2.94,14.19-5,28.53-7.93,42.72a243.18,243.18,0,0,1-5.94,23.64l1,.26a158.23,158.23,0,0,1,16.63-38.2c1.52-2.52,3.06-5.6,5.61-7.24s5.93-.77,8.09,1.36c2.38,2.35,3.36,5.76,4.32,8.86q1.63,5.25,2.91,10.6a165.93,165.93,0,0,1,4,24.37c.06.64,1.06.64,1,0Z" transform="translate(0 -0.51)" fill="#4054a5"/><path d="M197.27,279.85a13.37,13.37,0,0,0-9.44-3.93,18.58,18.58,0,0,0-10.48,3.14,37.61,37.61,0,0,0-8.67,8.08,62.28,62.28,0,0,0-12,23.41.5.5,0,0,0,.84.48,60.76,60.76,0,0,0,8.86-13.48c2.51-5,4.75-10.07,6.75-15.25a174.51,174.51,0,0,0,9-32.35,175.11,175.11,0,0,0,2.27-18.7c0-.57-.83-.66-1-.13A207.85,207.85,0,0,0,175.59,281c-.13,3.75,0,7.83,2.48,10.86a.51.51,0,0,0,.79-.1,47,47,0,0,0,3.45-24.47c-.05-.42-.71-.77-.93-.25a80.4,80.4,0,0,1-13.84,21.54q-2.41,2.67-5.06,5.12l.84.23c-1.4-7.54,2.12-14.87,2.13-22.38a18.3,18.3,0,0,0-.95-6,.5.5,0,0,0-.83-.22q-14.62,15.38-28,31.91c-2.16,2.67-4.33,5.35-6.39,8.11a31.52,31.52,0,0,0-4.64,8.1c-.12.34-.23.67-.33,1a4,4,0,0,0-.29,1.17c0,.47.56.91.94,1.13a4,4,0,0,0,3.28,0,21.36,21.36,0,0,0,3.87-2.11c1.44-.89,2.89-1.78,4.32-2.69a356.64,356.64,0,0,0,33.39-23.88c9.71-7.84,19.19-16.1,27.43-25.5,7.85-9,14.58-19.06,18.45-30.4.48-1.4.91-2.82,1.3-4.25a.53.53,0,0,0-.35-.62,5.74,5.74,0,0,0-4.78.8c-1.57.9-3,2.05-4.48,3.1q-4.5,3.24-8.92,6.62-8.77,6.7-17.15,13.93t-16.39,15a187,187,0,0,0-14.47,15.32,79.27,79.27,0,0,0-12.16,19.39c-.24.58.57,1.1.86.51a102.49,102.49,0,0,0,10.68-49.62.5.5,0,0,0-1,0,6.51,6.51,0,0,0,1.51,5c.41.49,1.12-.22.71-.71a5.52,5.52,0,0,1-1.22-4.31h-1a102.33,102.33,0,0,1-6.13,38.87,100.58,100.58,0,0,1-4.41,10.24l.86.51c5.3-12.55,14.58-22.8,24.16-32.25a376.22,376.22,0,0,1,32.83-28.84q4.88-3.79,9.87-7.44,2.43-1.77,4.89-3.5c1.56-1.1,3.5-2.37,5.47-1.65l-.35-.62A76.83,76.83,0,0,1,206,249.6a121.65,121.65,0,0,1-15.51,18.82,245.51,245.51,0,0,1-18.83,16.93q-10.72,8.82-22.12,16.76-5.69,4-11.53,7.71-2.88,1.85-5.79,3.63c-1.61,1-3.33,2.36-5.25,2.65a1.85,1.85,0,0,1-2-.7l.05.39a27.53,27.53,0,0,1,5.28-10.09c2.52-3.36,5.18-6.61,7.83-9.87q8-9.82,16.51-19.27,4.78-5.32,9.71-10.5l-.83-.22c2.51,7.27-.82,14.88-1.44,22.19a23.35,23.35,0,0,0,.26,6.19.5.5,0,0,0,.83.22A80.83,80.83,0,0,0,179,274.23c1.2-2.17,2.28-4.39,3.27-6.65l-.93-.26a46,46,0,0,1-3.32,24l.79-.1c-2.22-2.66-2.3-6.36-2.21-9.65.12-4.07.38-8.13.74-12.18A207.17,207.17,0,0,1,181,244.83c1-4.51,2.09-9,3.36-13.44l-1-.14A172.43,172.43,0,0,1,178,264a172,172,0,0,1-11.56,31.13,64.17,64.17,0,0,1-9.64,15.17l.84.48A61.62,61.62,0,0,1,168,289.59c4.39-5.8,10.39-12,18.08-12.63a12.9,12.9,0,0,1,10.47,3.59c.44.47,1.15-.24.71-.7Z" transform="translate(0 -0.51)" fill="#4054a5"/><path d="M383.85,167.63c6.38,1.23,12.94,2,19.4,1a28.27,28.27,0,0,0,14.3-6.44,20.75,20.75,0,0,0,5.1-6.76.5.5,0,0,0-.43-.75c-4.23-.26-8,2.08-11.26,4.54a93.37,93.37,0,0,0-9.11,7.86,97,97,0,0,0-15,18.86,95,95,0,0,0-5.68,10.81,54,54,0,0,0-3.73,11.07c-1.52,7.32-.86,15.48,4.85,20.9,6,5.68,14.72,6.61,22.54,5.37A81.64,81.64,0,0,0,418,230.6q6-2,11.74-4.56a138.16,138.16,0,0,0,22-12.2A132.31,132.31,0,0,0,471,198a78.68,78.68,0,0,0,14.61-19.46,44.7,44.7,0,0,0,4.33-11.65,13.92,13.92,0,0,0-.1-6.45,11.85,11.85,0,0,0-2.48-4.5c-5.63-6.48-15.15-6-22.88-4.86a79.16,79.16,0,0,0-22.76,7.35,117.43,117.43,0,0,0-20.41,13,175.27,175.27,0,0,0-18.41,16.68,84.44,84.44,0,0,0-8.21,9.79,38.32,38.32,0,0,0-5.85,11.23c-1.05,3.69-1,7.77,1.29,11a14.41,14.41,0,0,0,7.44,5.1,32.22,32.22,0,0,0,9.8,1.44,107.33,107.33,0,0,0,12.8-.72,151.7,151.7,0,0,0,25.92-5.24,221,221,0,0,0,25.09-9.1c8.25-3.51,16.32-7.41,24.3-11.5,3.87-2,7.72-4,11.56-6.05.57-.31.06-1.17-.51-.87-7.65,4.09-15.36,8.09-23.19,11.83s-15.85,7.24-24,10.26a184.21,184.21,0,0,1-24.8,7.33,134,134,0,0,1-25.56,3.06,35.37,35.37,0,0,1-9.67-1,14.79,14.79,0,0,1-7.85-4.49c-5.5-6.62,0-15.92,4-21.72,4.74-6.73,10.73-12.56,16.79-18.1a147,147,0,0,1,18.8-14.74,95.26,95.26,0,0,1,21-10.46,74.68,74.68,0,0,1,11.18-2.91,46.2,46.2,0,0,1,12.58-.78,16.61,16.61,0,0,1,10.48,4.73,11,11,0,0,1,2.6,4.46,13.45,13.45,0,0,1-.05,6.61,47.14,47.14,0,0,1-4.42,11.37,68.16,68.16,0,0,1-6.37,9.85,107,107,0,0,1-16.95,17.09,137.1,137.1,0,0,1-42.53,23.79c-8,2.76-17,5.49-25.5,3.66a20.93,20.93,0,0,1-9.88-4.9,17,17,0,0,1-5.07-9.44c-1.4-7.52,1.19-15.34,4.27-22.11a96.12,96.12,0,0,1,12.3-20,94.9,94.9,0,0,1,16.81-16.46c3.11-2.35,6.7-4.65,10.76-4.4l-.43-.75A21.82,21.82,0,0,1,411.46,165a34.26,34.26,0,0,1-16.71,3,73.08,73.08,0,0,1-10.63-1.37c-.63-.12-.9.84-.27,1Z" transform="translate(0 -0.51)" fill="#4054a5"/><path d="M447.5,537.37a124,124,0,0,1-19.2,27.19,74.14,74.14,0,0,1-5.9,5.86c-1.87,1.6-4.78,3.07-7.1,1.42s-1.32-5.1-.85-7.28a27.88,27.88,0,0,1,2.5-6.91A28.26,28.26,0,0,1,428.2,546l-.73-.3c1.59,7.39.75,16-4.67,21.66a17.11,17.11,0,0,1-8.87,5c-3.17.65-8.5.49-9.72-3.22a11.52,11.52,0,0,1,.2-6.24,25.77,25.77,0,0,1,2.31-5.72,80.21,80.21,0,0,1,6.26-9.67,110.41,110.41,0,0,1,32.94-29.67,102.87,102.87,0,0,1,9.95-5.15,42.69,42.69,0,0,1,12.32-3.77,12.59,12.59,0,0,1,6,.29,5.36,5.36,0,0,1,3.07,3.42c1.09,3.21.36,6.81-.44,10a53.8,53.8,0,0,1-9.54,19.14,87.86,87.86,0,0,1-15.58,15.55,129.7,129.7,0,0,1-19.66,12.8,134.28,134.28,0,0,1-44.48,14.4q-5.85.81-11.74,1.08c-3.22.15-7,.53-9.93-1a4.76,4.76,0,0,1-2.71-3.94c-.13-2.13.9-4.17,1.88-6a53.28,53.28,0,0,1,6.06-9c9.88-11.85,24-19.23,38.66-23.28a147.86,147.86,0,0,1,25.07-4.4c8.6-.84,17.56-1.3,26,.75a19.39,19.39,0,0,1,9.23,4.59,13.11,13.11,0,0,1,3.57,10.13c-.34,7.77-4.9,14.87-9.71,20.69-2.37,2.86-4.92,5.56-7.48,8.25a.51.51,0,0,0,.35.86,241.12,241.12,0,0,0,63.8-3.43q8.88-1.67,17.62-4a.5.5,0,0,0-.26-1,240.48,240.48,0,0,1-63.1,8.17q-9,0-18.06-.76l.36.85c5.55-5.83,11.26-11.86,14.69-19.24,3.05-6.57,4.69-15.46-1-21.16a19.91,19.91,0,0,0-9.25-4.81,57.21,57.21,0,0,0-13.16-1.58,143.71,143.71,0,0,0-27.21,2.48c-16.35,2.87-32.52,8.74-45,20a61.34,61.34,0,0,0-7.59,8.27,41.11,41.11,0,0,0-5.84,9.84,7.46,7.46,0,0,0-.22,5.66,6,6,0,0,0,3,3c3.13,1.45,6.8,1.15,10.14,1a134.8,134.8,0,0,0,69.6-23.42,106.23,106.23,0,0,0,18-15.26A63.25,63.25,0,0,0,475.83,529a42,42,0,0,0,2.87-10.66c.35-3,.15-6.6-2.14-8.8-2.8-2.71-7.6-1.9-11-1.19a53.81,53.81,0,0,0-12.39,4.52,109.51,109.51,0,0,0-19.74,12.26,110.22,110.22,0,0,0-24,25.69c-2.28,3.41-4.55,7-5.75,10.94-1,3.37-1.7,8.28,1.76,10.49,2.91,1.86,7.05,1.68,10.23.69,7.22-2.23,11.92-8.75,13.14-16a30.91,30.91,0,0,0-.39-11.5.5.5,0,0,0-.73-.3A29.35,29.35,0,0,0,413.8,563c-.62,2.31-1.39,5.35-.56,7.68a4.75,4.75,0,0,0,5.33,2.79c2.79-.39,4.91-2.62,6.83-4.51a125.22,125.22,0,0,0,11.91-13.6,123.81,123.81,0,0,0,11.05-17.49c.3-.57-.56-1.08-.86-.51Z" transform="translate(0 -0.51)" fill="#4054a5"/><path d="M256.3,505.08,252,502.51a.49.49,0,0,0-.68.18q-8.68,16.16-16.27,32.85c-1.12,2.45-2.5,5.37-1.06,8a.49.49,0,0,0,.78.1,107.63,107.63,0,0,0,15.61-22.09,108.32,108.32,0,0,0,12.27-40.23.51.51,0,0,0-.86-.35C257,486.14,254,492.64,251,499q-5.14,10.92-10.27,21.84t-10.33,22c-1.6,3.41-3.25,6.81-4.67,10.31-.7,1.73-1.34,3.49-1.87,5.29-.26.86-.49,1.72-.68,2.59a3.29,3.29,0,0,0,0,2.17c.67,1.39,2.58,1.39,3.89,1.54a57.43,57.43,0,0,0,5.86.37,87.06,87.06,0,0,0,11.74-.71c7.81-1,15.56-2.46,23.3-3.85q23.54-4.23,47-9t46.76-10l5.83-1.32a.5.5,0,0,0-.13-1q-23.78,1.24-47.56,2t-47.74,1.11q-13.41.18-26.81.22a.5.5,0,0,0,0,1q23.81-.06,47.6-.59t47.72-1.52q13.4-.56,26.79-1.26l-.14-1q-22.89,5.22-45.89,10t-45.83,8.91c-7.64,1.4-15.28,2.79-22.93,4.07s-15.32,2.28-23,1.74c-.93-.06-1.86-.15-2.78-.26-.76-.09-2.17-.08-2.65-.81s0-1.92.2-2.65.47-1.72.74-2.56a86.88,86.88,0,0,1,4.23-10.29q5-10.7,10-21.35t10.09-21.45c3-6.4,5.73-13.12,9.78-18.95a36.43,36.43,0,0,1,3.17-3.94l-.85-.36a107.44,107.44,0,0,1-6,26A108.74,108.74,0,0,1,243.44,531,105.56,105.56,0,0,1,234,542.92l.79.1c-1.32-2.4.29-5.28,1.29-7.48,1.22-2.68,2.46-5.34,3.72-8q3.72-7.83,7.7-15.55,2.26-4.42,4.62-8.8l-.69.18,4.33,2.57a.5.5,0,0,0,.51-.86Z" transform="translate(0 -0.51)" fill="#4054a5"/><path d="M132.89,372.05l-15.41,23.46L102.07,419,86.66,442.42Q79,454.1,71.3,465.8C66.62,472.91,62,480.11,58.75,488c-.4,1-.77,2-1.13,2.94a.5.5,0,0,0,.84.48c9.65-10.59,15.78-23.72,20.91-37,1.47-3.79,2.87-7.62,4.26-11.44h-1A219.18,219.18,0,0,0,94,466.19c1.05,1.89,2.14,3.75,3.26,5.6.91,1.51,1.77,3.37,3.25,4.42s3.59.7,5.36.26c2.06-.52,4.1-1.1,6.12-1.76A90.89,90.89,0,0,0,123.66,470c3.22-1.57,6.6-3.3,8.72-6.32a6.64,6.64,0,0,0,1.31-4.32,6.29,6.29,0,0,0-2.17-4.06,20.06,20.06,0,0,0-4.35-2.74c-1.85-1-3.7-1.91-5.57-2.85-7.44-3.73-15-7.22-22.71-10.39s-15.51-6-23.46-8.39a204.24,204.24,0,0,0-24.23-5.8,161.76,161.76,0,0,0-24.45-2.52c-7.29-.13-15.11.92-20.26,6.63C1.18,435.12,0,443.31,0,451c0,2.17.09,4.34.18,6.52,0,.64,1,.64,1,0C.86,449.57.55,441.16,4.4,434a18.42,18.42,0,0,1,7.16-7.53,24.62,24.62,0,0,1,10.26-2.74,80.45,80.45,0,0,1,11.3.2c4,.27,8,.7,12,1.26a195.74,195.74,0,0,1,23.21,4.77,267.15,267.15,0,0,1,44.94,16.83q5.44,2.57,10.81,5.32c1.65.84,3.34,1.65,4.92,2.61a7.91,7.91,0,0,1,3.3,3.28c1.47,3.32-1.43,6.42-3.93,8.21a35.35,35.35,0,0,1-4.79,2.72q-2.8,1.38-5.68,2.57a91.26,91.26,0,0,1-11.61,3.85c-1.77.46-4,1.22-5.51-.14a8.85,8.85,0,0,1-1.52-2c-.57-.92-1.13-1.84-1.68-2.77a219,219,0,0,1-11.53-22.06q-1.26-2.79-2.44-5.59a.5.5,0,0,0-1,0c-4.83,13.26-9.75,26.7-17.59,38.53a78.57,78.57,0,0,1-7.33,9.43l.84.48c2.88-8.08,7.38-15.43,12-22.59,5-7.7,10.1-15.37,15.15-23.05l15.33-23.35,15.41-23.45,15.34-23.35,1.89-2.87c.36-.54-.51-1-.86-.51Z" transform="translate(0 -0.51)" fill="#4054a5"/><path d="M554.87,422.35c1.08.06,1.07-1.2.51-1.82-.84-.93-1.93,0-2.14.94a5.24,5.24,0,0,0,.19,2.19c.28,1.3.57,2.61.86,3.91l1.69,7.61q3.39,15.33,6.79,30.65l3.85,17.39a.5.5,0,0,0,1-.13,248.51,248.51,0,0,1,5.23-43.49h-1a431.37,431.37,0,0,1,15.23,57.54q1.57,8.21,2.83,16.47a.5.5,0,0,0,1,0,257.23,257.23,0,0,1,10.66-45.23l-.83.22c6.6,6,11.14,13.85,15.61,21.49,4.27,7.3,8.55,14.92,14.8,20.74a32,32,0,0,0,11.61,7,.5.5,0,0,0,.57-.23c3.74-7.4,2.51-15.81-.59-23.21-3.17-7.56-8.11-14.27-13.31-20.55a149.22,149.22,0,0,0-80-49.58c-14.91-3.52-31.19-5.39-46.2-1.41a41.86,41.86,0,0,0-19,10.39,36.69,36.69,0,0,0-10,19.71,47.32,47.32,0,0,0,1.53,22.26,56.86,56.86,0,0,0,11.7,20.24c11,12.64,26.2,21.35,41.63,27.42a161,161,0,0,0,52.41,10.65A202.66,202.66,0,0,0,636,528a289.07,289.07,0,0,0,53.21-18.58q6.32-2.86,12.53-6c.57-.29.07-1.15-.51-.87a321.84,321.84,0,0,1-51.33,20.67,218.15,218.15,0,0,1-53.56,9.33,170.66,170.66,0,0,1-52.08-5.66c-16.28-4.47-32.32-11.63-45.6-22.18-12.24-9.73-22.19-23.11-23.83-39.05a42,42,0,0,1,3.4-22.07,34.91,34.91,0,0,1,15.16-15.8c13.4-7.24,29.77-6.94,44.42-4.73a145.64,145.64,0,0,1,44.29,14.31,148.65,148.65,0,0,1,37.67,27.36,140.92,140.92,0,0,1,15.19,18c4.73,6.69,9,14.5,9.65,22.82a21.69,21.69,0,0,1-2.14,11.6l.56-.23c-8.11-2.73-14-8.95-18.76-15.85-4.89-7.14-8.75-14.91-13.58-22.09a60.49,60.49,0,0,0-9.24-11.07.51.51,0,0,0-.84.22,257.34,257.34,0,0,0-10.66,45.24h1a432.21,432.21,0,0,0-13-58.1q-2.39-8-5.07-15.92c-.15-.44-.86-.52-1,0a251.59,251.59,0,0,0-5.26,43.76l1-.14q-5.43-24.56-10.88-49.12l-1.49-6.74-.77-3.48a6.75,6.75,0,0,1-.25-1.47c0-.63.38-.81.68-.79-.64,0-.64,1,0,1Z" transform="translate(0 -0.51)" fill="#4054a5"/><path d="M571.6,56.16a292.54,292.54,0,0,0-66.68,7.94q-9.41,2.24-18.63,5.1a.5.5,0,0,0,.13,1c16.74.57,33.45-1,50.1-2.54s33.2-3.24,49.86-2.86a157.47,157.47,0,0,1,24.71,2.38c7.53,1.37,15.29,3.18,22.13,6.72,6.22,3.23,11.56,8.22,13.4,15.17a17.64,17.64,0,0,1,0,9.64,14.29,14.29,0,0,1-6.55,8,37.7,37.7,0,0,1-10.49,3.86,77.12,77.12,0,0,1-12.26,2,78.41,78.41,0,0,1-24.38-1.91c-2-.48-4-1.05-5.93-1.69l.22.84A51.06,51.06,0,0,1,611,99.41c4.12-.64,9-1.19,13,.16s5.84,5,5.74,9c-.12,4.19-2.47,7.75-5.38,10.6a73.8,73.8,0,0,1-10.41,8A144.92,144.92,0,0,1,562.28,149l.48.83c15.73-16,32.63-31.94,53.37-41.21a87.26,87.26,0,0,1,16.06-5.43c2.64-.61,6-1.21,7.49,1.65,1.06,2,.86,4.54.31,6.64-2.63,10-11.25,17.6-18.77,24.13-4,3.45-8,6.83-11.66,10.58a94.12,94.12,0,0,0-18.94,28.07c-1.7,3.9-5.17,10.23-1.15,13.82,2.85,2.53,7.5,1.87,10.84.91a70.18,70.18,0,0,0,7.38-2.84q4.11-1.69,8.21-3.45c11.24-4.8,22.39-9.82,33.7-14.47,22-9,45.07-16.82,69.07-17.37,3-.07,5.91,0,8.86.13.65,0,.65-1,0-1C703.45,148.77,680,155.32,657.7,164c-11.28,4.36-22.34,9.26-33.43,14.08-5.66,2.46-11.33,4.91-17,7.26-4.34,1.78-9.16,4.21-14,3.4a5.12,5.12,0,0,1-4.46-3.65,8.87,8.87,0,0,1,.64-5c.55-1.57,1.18-3.12,1.84-4.64a93.2,93.2,0,0,1,19.31-28.72c3.68-3.73,7.71-7.1,11.66-10.53,7.52-6.55,15.42-13.82,18.54-23.61,1.07-3.37,1.27-8.62-2.56-10.35-2.33-1.06-5.09-.2-7.43.38a85.88,85.88,0,0,0-8.29,2.5c-21.19,7.56-38.71,22.6-54.49,38.18q-3,3-5.92,6a.5.5,0,0,0,.48.83,146,146,0,0,0,52.31-22.18c6.53-4.44,15.35-10,15.91-18.76.22-3.41-.93-7-3.77-9.09-3.47-2.54-8.37-2.28-12.43-2a52.1,52.1,0,0,0-28,11.09c-.31.25-.1.73.22.84a79.13,79.13,0,0,0,24.85,3.87,73.16,73.16,0,0,0,24.15-4,21.11,21.11,0,0,0,8.89-5.53A15,15,0,0,0,648.17,96c.76-6.53-2.07-13.06-6.71-17.56-5.27-5.11-12.33-7.89-19.29-9.82a135.27,135.27,0,0,0-24.87-4.31c-17.3-1.45-34.69-.14-51.93,1.45-17.43,1.62-34.87,3.57-52.4,3.5-2.18,0-4.37,0-6.55-.12l.13,1a291.77,291.77,0,0,1,66.21-12.33q9.4-.64,18.84-.67a.5.5,0,0,0,0-1Z" transform="translate(0 -0.51)" fill="#4054a5"/><path d="M142.88,601.45c-7-4-15.71-.44-22.4,2.51a85,85,0,0,0-19.9,12.34A83.79,83.79,0,0,0,91,625.6a.51.51,0,0,0,.35.85c9.17-.22,18.08-2.65,26.68-5.69s17.2-6.81,26-9.72a99.12,99.12,0,0,1,13.13-3.47,54.3,54.3,0,0,1,13.7-1c2.33.17,4.65.86,6.09,2.82a12.49,12.49,0,0,1,2,5.83A70.12,70.12,0,0,1,179,630a81.93,81.93,0,0,1-8.09,29.07c-.55,1.13-1.13,2.24-1.73,3.33l.93.26a70.51,70.51,0,0,1,15.09-35.08q2-2.48,4.23-4.74c1.46-1.5,3.3-3.38,5.55-3.36,2.07,0,3.42,1.85,4.39,3.45,1.16,1.92,2.22,3.91,3.25,5.91a118.23,118.23,0,0,1,5.51,12.52,121.78,121.78,0,0,1,6.6,26.26,119.86,119.86,0,0,1,.57,27.17c-.11,1.12-.23,2.23-.36,3.35l.93-.25L194.2,657.12l-6.1-11.46c-.3-.57-1.17-.06-.86.51l21.69,40.77L215,698.4c.26.49.88.2.94-.25a120,120,0,0,0,.08-28.22,123.41,123.41,0,0,0-6.32-27.2,121.39,121.39,0,0,0-5.49-12.93q-1.56-3.16-3.32-6.24c-.95-1.66-2-3.51-3.72-4.48-4.09-2.3-8,2.47-10.41,5.15a70,70,0,0,0-7.89,10.63,71.05,71.05,0,0,0-9.28,24.63c-.19,1.06-.34,2.12-.48,3.18-.07.5.71.66.93.25a83.5,83.5,0,0,0,9.54-29.06,82.2,82.2,0,0,0,.61-15.44c-.22-4-.62-8.89-4.25-11.34-2-1.34-4.51-1.52-6.85-1.56a57.82,57.82,0,0,0-7,.33,78.24,78.24,0,0,0-13.47,2.72c-9.11,2.6-17.82,6.36-26.68,9.69s-17.81,6.25-27.2,7c-1.14.1-2.27.16-3.41.18l.36.86a83.82,83.82,0,0,1,27.17-20.54,63.73,63.73,0,0,1,10.73-4.13c4.17-1.12,8.83-1.54,12.73.67a.5.5,0,0,0,.5-.86Z" transform="translate(0 -0.51)" fill="#4054a5"/><path d="M205.67,49.44a65.73,65.73,0,0,0-16.19-24.63.51.51,0,0,0-.84.49,62.08,62.08,0,0,0,12.15,28.79c6.13,8,14.7,15.7,24.76,18a19,19,0,0,0,14.17-1.87,22.36,22.36,0,0,0,8.53-10.47c3.93-9.08,4-19.8,2-29.36A57.4,57.4,0,0,0,233.78.64a.51.51,0,0,0-.84.22,310.5,310.5,0,0,0-4.63,43.54c-.44,12.56-.27,25.25,2,37.65,2.06,11.51,6,22.85,13.07,32.29,3.24,4.33,7.43,9.09,13.44,7.71,5.54-1.27,9.47-6.33,12.32-10.9A57.71,57.71,0,0,0,277,71.75a.5.5,0,0,0-.73-.3l-6.47,4.82.73.3L264,57.67a.51.51,0,0,0-.92-.12A73.42,73.42,0,0,0,252.73,96.1l1-.14c-3.09-14.44-11-27.41-21.37-37.81-11.23-11.27-25.21-19.33-40-25.11-16-6.3-33.09-10.23-50.1-12.89A297.05,297.05,0,0,0,35.74,22.84q-3.33.7-6.65,1.48c-.62.14-.36,1.11.27,1a296.23,296.23,0,0,1,105.35-5.21,258.54,258.54,0,0,1,50.45,11.37C200.37,36.66,215.1,44,227.23,54.71c11,9.71,19.93,22.12,24.17,36.27q.78,2.59,1.34,5.25a.51.51,0,0,0,1-.13,72.37,72.37,0,0,1,10.22-38l-.92-.12,6.56,18.9a.49.49,0,0,0,.73.3l6.47-4.82-.73-.3a56.78,56.78,0,0,1-5.69,34.9c-2.62,5-6,10.49-11.21,13.19a8.83,8.83,0,0,1-8.6.11c-2.63-1.47-4.58-4-6.35-6.38-14-18.72-15.54-43.52-15-66a307,307,0,0,1,4.7-46.67l-.84.22c14.05,13.3,21.18,35.06,15.72,53.93a26.1,26.1,0,0,1-6.8,12,16.92,16.92,0,0,1-13.61,4.33c-10.11-1.11-18.94-8.58-25.22-16.11A61.16,61.16,0,0,1,189.61,25l-.84.49a64.66,64.66,0,0,1,15.94,24.19c.22.6,1.19.34,1-.27Z" transform="translate(0 -0.51)" fill="#4054a5"/></svg>