<svg xmlns="http://www.w3.org/2000/svg" width="13.34" height="9.81" viewBox="0 0 13.34 9.81"><path d="M9.11.61a.59.59,0,0,0,.79.7A.64.64,0,0,0,10.19.25c-.41-.43-1-.2-1.46,0a8.93,8.93,0,0,0-1.6,1A7.74,7.74,0,0,0,4.71,4a1.41,1.41,0,0,0,.22,1.62,3.34,3.34,0,0,0,1.49.75,17.31,17.31,0,0,0,4.84.78L11,6.17A16.85,16.85,0,0,1,6,8.82c-.6.2-.34,1.17.27,1A18.41,18.41,0,0,0,11.52,7a.51.51,0,0,0-.26-.94,16.11,16.11,0,0,1-3.32-.4c-.53-.13-1.05-.27-1.56-.45s-.93-.3-.81-.77a3.49,3.49,0,0,1,.81-1.2,9,9,0,0,1,1-1,7.12,7.12,0,0,1,1.2-.83,5.07,5.07,0,0,1,.61-.32L9.46,1l.1,0C9.38.46,9.47.26,9.84.4l.23.3V.88a.5.5,0,0,0-1-.27Z" transform="translate(-0.73 -0.01)" fill="#231f20"/><path d="M1.94,6.11a.36.36,0,0,1-.46.13l-.12.92,12.36-4c.61-.2.35-1.17-.27-1l-12.36,4c-.36.12-.54.73-.12.92a1.43,1.43,0,0,0,1.68-.29c.45-.46-.26-1.17-.71-.71Z" transform="translate(-0.73 -0.01)" fill="#231f20"/></svg>