<svg xmlns="http://www.w3.org/2000/svg" width="11.75" height="9.87" viewBox="0 0 11.75 9.87"><path d="M1,.87A.09.09,0,0,1,1,.81L1,.93,1,.85,1,1V.9L1,1,1,.93,1,1.05,1,1,1,1.05A.43.43,0,0,1,1,1L.94,1,1.05,1,.93,1,1,1H1L.86,1,.94,1,.82,1,.88,1,.7.81s0,0,0,0l0-.12A.14.14,0,0,1,.69.8l0-.13V.74l0-.13A.29.29,0,0,1,.67.7l0-.12L.66.67.74.57.65.66.75.58.66.63.78.58a.32.32,0,0,1-.09,0l.13,0H.74l.14,0L.81.59.93.64.87.61A.32.32,0,0,0,.69.55a.34.34,0,0,0-.2,0A.26.26,0,0,0,.32.65.29.29,0,0,0,.19.79a.5.5,0,0,0,0,.38l0,.12a.39.39,0,0,0,.18.18.51.51,0,0,0,.21.1l.17,0H.8a.62.62,0,0,0,.23,0,1,1,0,0,0,.21-.09,1,1,0,0,0,.31-.32l0,0A1,1,0,0,0,1.64.93a.58.58,0,0,0,0-.23,1,1,0,0,0,0-.23A1,1,0,0,0,1.57.32.63.63,0,0,0,1.35.11L1.19,0,1.14,0,1,0H.91L.69,0a1.36,1.36,0,0,0-.21.1l0,0L.3.28A1.22,1.22,0,0,0,.15.45a2.14,2.14,0,0,0-.1.22A1,1,0,0,0,0,.91V1a.63.63,0,0,0,0,.19.68.68,0,0,0,.09.22.35.35,0,0,0,.13.14.32.32,0,0,0,.17.09.45.45,0,0,0,.2,0,.33.33,0,0,0,.19-.06A.53.53,0,0,0,1,1.25.51.51,0,0,0,1,.87Z" transform="translate(0 0)" fill="#231f20"/><path d="M1.71,5.24l0-.29a.41.41,0,0,0,0-.19.31.31,0,0,0-.11-.16.31.31,0,0,0-.16-.11.41.41,0,0,0-.19,0l-.13,0a.38.38,0,0,0-.22.13l-.08.1A.43.43,0,0,0,.74,5l0,.29a.41.41,0,0,0,0,.19.48.48,0,0,0,.1.17A.48.48,0,0,0,1,5.7a.41.41,0,0,0,.19,0l.13,0a.43.43,0,0,0,.22-.12l.08-.11a.43.43,0,0,0,.07-.25Z" transform="translate(0 0)" fill="#231f20"/><path d="M.89,8.68l0,0,.12,0h0l.13,0H1l.13,0h0l.12,0,0,0,.1.08,0,0,.08.1,0-.06,0,.12a.29.29,0,0,1,0-.09l0,.13a.21.21,0,0,1,0-.11l0,.13a.31.31,0,0,1,0-.08l0,.12,0-.05L1.3,9l0,0-.1.08,0,0-.12,0h0l-.14,0a.09.09,0,0,1,.07,0L1,9.11l.07,0L.93,9.08l.06,0L.89,9l0,.05L.86,9l.05.08L.86,8.94l0,.12,0-.13v.13l0-.13a.5.5,0,0,1,0,.13L.9,8.94A.41.41,0,0,1,.85,9l.08-.1A.46.46,0,0,1,.86,9L1,8.92l0,0a.5.5,0,0,0-.23.3.44.44,0,0,0,0,.2.32.32,0,0,0,.06.18.5.5,0,0,0,.3.23.46.46,0,0,0,.38,0,.54.54,0,0,0,.18-.15.85.85,0,0,0,.14-.19A1,1,0,0,0,1.87,9a1.94,1.94,0,0,0,0-.24.67.67,0,0,0-.09-.21.8.8,0,0,0-.13-.19l0,0-.14-.11a.86.86,0,0,0-.34-.09H1.07a.86.86,0,0,0-.17,0,.47.47,0,0,0-.15.06.6.6,0,0,0-.13.09l0,0a.64.64,0,0,0-.1.13.39.39,0,0,0-.06.15l0,0a1.33,1.33,0,0,0,0,.21.74.74,0,0,0,0,.29.71.71,0,0,0,.31.41l.13.06h0l.15,0h0l.14,0h0a.46.46,0,0,0,.16-.07.47.47,0,0,0,.23-.3.31.31,0,0,0,0-.19.33.33,0,0,0-.06-.19.5.5,0,0,0-.3-.23.5.5,0,0,0-.38,0Z" transform="translate(0 0)" fill="#231f20"/><path d="M5.73.69,5,.38l-.14,1L11,1.25a.5.5,0,0,0,0-1L4.81.36a.5.5,0,0,0-.13,1l.78.31a.51.51,0,0,0,.62-.35A.5.5,0,0,0,5.73.69Z" transform="translate(0 0)" fill="#231f20"/><path d="M5.11,4.33H11.2a.5.5,0,0,0,0-1H5.11a.5.5,0,0,0,0,1Z" transform="translate(0 0)" fill="#231f20"/><path d="M3.85,9a55.67,55.67,0,0,1,7.42.11c.64,0,.64-1,0-1A55.67,55.67,0,0,0,3.85,8c-.64,0-.64,1,0,1Z" transform="translate(0 0)" fill="#231f20"/></svg>