<svg xmlns="http://www.w3.org/2000/svg" width="9.19" height="8.35" viewBox="0 0 9.19 8.35"><path d="M5.19,8.34a5.65,5.65,0,0,0,4-2.93,2.67,2.67,0,0,0,.14-2.65,3,3,0,0,0-2-1.34A6.47,6.47,0,0,0,3.88,2a.52.52,0,0,0-.35.62A.5.5,0,0,0,4.15,3a5.61,5.61,0,0,1,3-.56A1.66,1.66,0,0,1,8.61,4,3.81,3.81,0,0,1,7.26,6.26,4.69,4.69,0,0,1,4.93,7.37.5.5,0,0,0,4.58,8a.52.52,0,0,0,.61.35Z" transform="translate(-0.41)" fill="#231f20"/><path d="M3.8.07.65,2.27a.52.52,0,0,0,0,.87A9.21,9.21,0,0,0,4.31,4.42c.27,0,.5-.25.5-.5a.51.51,0,0,0-.5-.5A8,8,0,0,1,1.16,2.27v.87L4.31.93A.51.51,0,0,0,4.49.25.51.51,0,0,0,3.8.07Z" transform="translate(-0.41)" fill="#231f20"/></svg>